<svg xmlns="http://www.w3.org/2000/svg" viewBox="0 0 56.43 46.92"><defs><style>.cls-1{fill:#fff;}</style></defs><g id="Capa_2" data-name="Capa 2"><g id="Layer_2" data-name="Layer 2"><path class="cls-1" d="M55.88,18.2a4.49,4.49,0,0,0-1.14-1.68V6.83A7.45,7.45,0,0,0,47.52,0H6.83A6.83,6.83,0,0,0,0,6.83V40.09a6.83,6.83,0,0,0,6.83,6.83H47.52a7.44,7.44,0,0,0,7.22-6.83V30.41a4.52,4.52,0,0,0,1.14-1.69,14.1,14.1,0,0,0,.55-5v-.57A14.16,14.16,0,0,0,55.88,18.2Zm-4.6.5c1.18,0,1.33.39,1.46.72a12.17,12.17,0,0,1,.31,3.76v.57a12.07,12.07,0,0,1-.31,3.75c-.13.34-.28.72-1.46.72H35a4.76,4.76,0,0,1,0-9.52ZM47.52,43.55H6.83a3.46,3.46,0,0,1-3.46-3.46V6.83A3.46,3.46,0,0,1,6.83,3.37H47.52A3.46,3.46,0,0,1,51,6.83v8.5H35a8.13,8.13,0,0,0,0,16.26H51v8.5A3.46,3.46,0,0,1,47.52,43.55Z"/><path class="cls-1" d="M33.28,23.46a2.18,2.18,0,1,0,2.18-2.18A2.18,2.18,0,0,0,33.28,23.46Z"/></g></g></svg>