<svg width="58" height="60" viewBox="0 0 58 60" fill="none" xmlns="http://www.w3.org/2000/svg">
<g clip-path="url(#clip0_105_181)">
<path d="M0.750011 24.65C0.750066 23.6018 0.985518 22.567 1.43899 21.622C1.89246 20.6769 2.55237 19.8458 3.37001 19.19L24.51 2.27995C25.7499 1.29094 27.289 0.752319 28.875 0.752319C30.4611 0.752319 32.0001 1.29094 33.24 2.27995L54.38 19.19C55.1977 19.8458 55.8576 20.6769 56.311 21.622C56.7645 22.567 57 23.6018 57 24.65V51.81C57 53.6665 56.2625 55.4469 54.9498 56.7597C53.637 58.0725 51.8565 58.81 50 58.81H41.74C40.6791 58.81 39.6617 58.3885 38.9116 57.6384C38.1614 56.8882 37.74 55.8708 37.74 54.81V45.81C37.74 44.4839 37.2132 43.2121 36.2755 42.2744C35.3379 41.3367 34.0661 40.81 32.74 40.81H25C23.6739 40.81 22.4022 41.3367 21.4645 42.2744C20.5268 43.2121 20 44.4839 20 45.81V54.81C20 55.8708 19.5786 56.8882 18.8284 57.6384C18.0783 58.3885 17.0609 58.81 16 58.81H7.73001C5.8735 58.81 4.09302 58.0725 2.78026 56.7597C1.46751 55.4469 0.730011 53.6665 0.730011 51.81L0.750011 24.65Z" fill="white" stroke="white" stroke-width="1.5"/>
</g>
<defs>
<clipPath id="clip0_105_181">
<rect width="57.75" height="59.54" fill="white"/>
</clipPath>
</defs>
</svg>
