<svg width="60" height="61" viewBox="0 0 60 61" fill="none" xmlns="http://www.w3.org/2000/svg">
<g clip-path="url(#clip0_105_183)">
<path d="M34.5556 27.0375C34.2044 26.706 33.99 26.2554 33.9545 25.7741L32.6662 25.9925C32.7506 26.7444 33.1058 27.4401 33.6656 27.9499C34.1352 28.3219 34.7071 28.5422 35.3051 28.5816V29.7514H36.3982V28.5894C36.8032 28.551 37.1989 28.4456 37.5693 28.2774C38.017 28.0746 38.3965 27.7469 38.6623 27.3338V27.3338C38.9078 26.9437 39.0377 26.4922 39.0371 26.0315C39.0534 25.6141 38.9447 25.2014 38.7248 24.8461C38.5154 24.5289 38.2203 24.2775 37.8738 24.1208C37.3953 23.9179 36.9051 23.7434 36.406 23.5983V21.2588C36.6178 21.3144 36.815 21.4156 36.9837 21.5551C37.265 21.8162 37.4401 22.1715 37.4756 22.5533L38.7482 22.3662C38.6933 21.9166 38.5386 21.485 38.2954 21.1028C38.0475 20.746 37.6959 20.4738 37.2882 20.323C37.0002 20.2069 36.6985 20.1282 36.3904 20.089V18.9426H35.2973V20.0968C35.051 20.1221 34.8078 20.1717 34.5712 20.245C34.273 20.3289 33.9926 20.4663 33.7437 20.6505C33.4704 20.855 33.2507 21.1226 33.1034 21.4304C32.942 21.7438 32.859 22.0917 32.8614 22.4442C32.8584 22.8368 32.9638 23.2226 33.1659 23.5593C33.355 23.8981 33.644 24.1704 33.9935 24.3392C34.4147 24.5322 34.8507 24.6913 35.2973 24.8149V27.443C35.0204 27.3711 34.7656 27.2317 34.5556 27.0375V27.0375ZM36.3904 25.0879C36.7126 25.1643 37.0226 25.2851 37.3116 25.4466C37.435 25.5219 37.535 25.6298 37.6005 25.7585C37.6695 25.888 37.7045 26.033 37.702 26.1796C37.6955 26.3545 37.6558 26.5265 37.5849 26.6866C37.5098 26.8439 37.4004 26.9824 37.2648 27.0921C37.0149 27.2948 36.7108 27.4196 36.3904 27.4508V25.0879ZM35.2973 23.2942L34.7898 23.1304C34.5926 23.0528 34.42 22.9235 34.2902 22.7561C34.1828 22.6179 34.125 22.4476 34.1262 22.2726C34.1348 22.1289 34.172 21.9884 34.2355 21.8593C34.3053 21.7339 34.4011 21.6249 34.5166 21.5395C34.7459 21.3746 35.0157 21.2748 35.2973 21.251V23.2942Z" fill="white"/>
<path d="M46.134 0H13.866C10.1885 0 6.66162 1.45921 4.06125 4.05662C1.46088 6.65403 0 10.1769 0 13.8502L0 47.1498C0 50.8231 1.46088 54.346 4.06125 56.9434C6.66162 59.5408 10.1885 61 13.866 61H46.134C49.8115 61 53.3384 59.5408 55.9387 56.9434C58.5391 54.346 60 50.8231 60 47.1498V13.8502C60 10.1769 58.5391 6.65403 55.9387 4.05662C53.3384 1.45921 49.8115 0 46.134 0V0ZM30.2147 7.72833C30.2395 7.61745 30.2934 7.51516 30.3709 7.43199C30.4432 7.34935 30.5382 7.2897 30.6441 7.26042C30.7512 7.22923 30.8649 7.22923 30.972 7.26042C31.4822 7.43087 31.9304 7.74835 32.2602 8.17285C32.7521 8.84352 33.8217 8.84352 34.4463 7.77512C34.561 7.63257 34.7109 7.52231 34.8812 7.45521C35.0515 7.38811 35.2364 7.36648 35.4176 7.39245C35.5989 7.41842 35.7702 7.4911 35.9147 7.60333C36.0593 7.71555 36.1721 7.86346 36.242 8.03247C36.3631 8.20892 36.5234 8.35503 36.7103 8.4594C36.8972 8.56377 37.1058 8.62357 37.3197 8.63414C37.5336 8.64471 37.747 8.60576 37.9434 8.52033C38.1397 8.4349 38.3136 8.3053 38.4515 8.14165C39.066 7.55801 39.8626 7.20287 40.7079 7.13564C40.8085 7.12123 40.9111 7.13472 41.0046 7.17464C41.0977 7.21557 41.1804 7.27686 41.2466 7.354C41.3116 7.4383 41.3545 7.53748 41.3715 7.64255C41.3986 7.74476 41.3986 7.85227 41.3715 7.95449L39.8569 13.0235C39.818 13.1519 39.7419 13.2659 39.6383 13.3511C39.5355 13.4309 39.4093 13.4747 39.2791 13.4758H32.3539C32.2263 13.4736 32.103 13.4298 32.0026 13.3511C31.8993 13.272 31.823 13.1631 31.784 13.0391L30.2225 8.07147C30.1887 7.95993 30.186 7.84128 30.2147 7.72833V7.72833ZM25.1243 26.1328C25.6474 22.2336 28.583 16.8526 31.8855 14.1075H39.8178C43.4229 17.1845 45.8026 21.4515 46.5244 26.1328C47.2349 31.8179 41.7228 36.5205 35.8126 36.5205C29.9024 36.5205 24.3591 31.8101 25.1243 26.1328V26.1328ZM16.7157 51.5638C16.7198 51.7062 16.6959 51.848 16.6451 51.9811C16.5944 52.1142 16.5179 52.236 16.42 52.3396C16.3222 52.4431 16.2048 52.5264 16.0747 52.5846C15.9446 52.6429 15.8042 52.6749 15.6617 52.679H8.07287C7.78638 52.6688 7.51556 52.5458 7.31955 52.3369C7.12353 52.1279 7.01824 51.85 7.02668 51.5638V38.9068C7.01824 38.6206 7.12353 38.3427 7.31955 38.1337C7.51556 37.9248 7.78638 37.8018 8.07287 37.7916H15.6617C15.8042 37.7956 15.9446 37.8277 16.0747 37.8859C16.2048 37.9442 16.3222 38.0275 16.42 38.131C16.5179 38.2346 16.5944 38.3564 16.6451 38.4895C16.6959 38.6226 16.7198 38.7644 16.7157 38.9068V51.5638ZM52.9499 39.1486C52.899 39.4857 52.7712 39.8067 52.5762 40.0867C52.3813 40.3666 52.1244 40.5979 51.8256 40.7628C50.3813 41.5973 32.9551 52.9207 32.7912 53.0299C32.4039 53.3154 31.9672 53.5269 31.5029 53.6538C31.0597 53.7719 30.6031 53.8322 30.1444 53.8332C29.3408 53.8291 28.5455 53.6703 27.8022 53.3653L21.1581 51.2285C20.1672 50.8171 19.108 50.5949 18.0351 50.5734C17.7737 50.5749 17.5127 50.5957 17.2544 50.6358L17.4105 40.2559L19.4951 40.178H19.5498C20.0268 39.9493 20.4399 39.6064 20.7521 39.1797C21.4782 38.3375 22.3917 37.2925 25.257 37.2925C26.6125 37.3207 27.962 37.4827 29.2856 37.776L36.4997 39.4761C36.4997 39.4761 39.0449 39.8114 39.4431 41.5739C39.6695 42.8139 39.5055 43.7419 38.9434 44.3268C38.267 44.8934 37.3956 45.1733 36.5153 45.1066C36.0673 45.1076 35.6202 45.0659 35.1802 44.9818L25.7645 43.4923C25.7148 43.4834 25.6637 43.4857 25.615 43.4992C25.5664 43.5127 25.5214 43.537 25.4834 43.5703C25.4038 43.6348 25.3509 43.7265 25.3351 43.8277C25.3231 43.879 25.3231 43.9323 25.3351 43.9836C25.3444 44.0371 25.3658 44.0878 25.3975 44.1318C25.4261 44.1732 25.4634 44.2078 25.5068 44.2332C25.5495 44.2607 25.5973 44.2793 25.6474 44.2878L35.0631 45.7617C35.5539 45.8615 36.0535 45.9112 36.5543 45.9099C37.0899 45.9407 37.6262 45.8657 38.1327 45.689C38.6391 45.5124 39.1056 45.2376 39.5055 44.8805C39.8717 44.4457 40.1326 43.9325 40.268 43.3807C40.4035 42.8289 40.4097 42.2533 40.2863 41.6987L48.7807 37.2145C49.4439 36.8589 50.1765 36.6514 50.9278 36.6062C51.1774 36.5919 51.4272 36.6327 51.6593 36.7257C51.8914 36.8187 52.1001 36.9616 52.2707 37.1443C52.5267 37.4064 52.7206 37.7225 52.8382 38.0694C52.9557 38.4162 52.9939 38.785 52.9499 39.1486Z" fill="white"/>
</g>
<defs>
<clipPath id="clip0_105_183">
<rect width="60" height="61" fill="white"/>
</clipPath>
</defs>
</svg>
