<svg width="59" height="61" viewBox="0 0 59 61" fill="none" xmlns="http://www.w3.org/2000/svg">
<path fill-rule="evenodd" clip-rule="evenodd" d="M18.2619 13.7554C10.6132 13.7554 4.14589 18.7338 3.135 25.3999L0.136399 45.1735C-1.08341 53.2172 6.03374 60.3646 15.2633 60.3646H43.7367C52.9663 60.3646 60.0834 53.2172 58.8636 45.1735L55.865 25.3999C54.8541 18.7338 48.3869 13.7554 40.7381 13.7554H18.2619ZM15.1491 5.75C15.1491 2.71243 17.6115 0.25 20.6491 0.25H38.3514C41.389 0.25 43.8514 2.71244 43.8514 5.75V21.5236C43.8514 22.352 43.1798 23.0236 42.3514 23.0236C41.523 23.0236 40.8514 22.352 40.8514 21.5236V5.75C40.8514 4.36929 39.7321 3.25 38.3514 3.25H20.6491C19.2684 3.25 18.1491 4.36929 18.1491 5.75V21.5236C18.1491 22.352 17.4775 23.0236 16.6491 23.0236C15.8206 23.0236 15.1491 22.352 15.1491 21.5236V5.75ZM29.0203 45.1125C28.3982 45.6595 27.3895 45.6595 26.7673 45.1125L20.3417 39.4629C19.7196 38.9158 19.7196 38.029 20.3417 37.4819C20.9639 36.9349 21.9726 36.9349 22.5947 37.4819L27.8938 42.1411L39.6185 31.8323C40.2406 31.2853 41.2493 31.2853 41.8715 31.8323C42.4936 32.3794 42.4936 33.2662 41.8715 33.8133L29.0203 45.1125Z" fill="white"/>
</svg>
