<svg width="48" height="59" viewBox="0 0 48 59" fill="none" xmlns="http://www.w3.org/2000/svg">
<path fill-rule="evenodd" clip-rule="evenodd" d="M0 12.9307C0 5.78929 5.78929 0 12.9307 0H34.7088C41.8502 0 47.6395 5.78929 47.6395 12.9307V45.5978C47.6395 52.7393 41.8502 58.5286 34.7088 58.5286H12.9307C5.78929 58.5286 0 52.7393 0 45.5978V12.9307ZM12.9307 13.6113C11.8031 13.6113 10.889 14.5254 10.889 15.653C10.889 16.7806 11.8031 17.6947 12.9307 17.6947H34.7088C35.8364 17.6947 36.7505 16.7806 36.7505 15.653C36.7505 14.5254 35.8364 13.6113 34.7088 13.6113H12.9307ZM10.889 29.2643C10.889 28.1367 11.8031 27.2226 12.9307 27.2226H34.7088C35.8364 27.2226 36.7505 28.1367 36.7505 29.2643C36.7505 30.3919 35.8364 31.306 34.7088 31.306H12.9307C11.8031 31.306 10.889 30.3919 10.889 29.2643ZM12.9307 40.8339C11.8031 40.8339 10.889 41.748 10.889 42.8756C10.889 44.0032 11.8031 44.9173 12.9307 44.9173H23.8198C24.9474 44.9173 25.8615 44.0032 25.8615 42.8756C25.8615 41.748 24.9474 40.8339 23.8198 40.8339H12.9307Z" fill="white"/>
</svg>
