<svg width="59" height="60" viewBox="0 0 59 60" fill="none" xmlns="http://www.w3.org/2000/svg">
<path fill-rule="evenodd" clip-rule="evenodd" d="M34.0751 1.13375C35.8044 0.417192 38.3763 -0.579883 40.9313 0.4266C41.2835 0.565325 41.6325 0.710261 41.9783 0.861272C44.493 1.95961 45.607 4.48366 46.3238 6.21388C46.452 6.5232 46.5689 6.8139 46.6807 7.09159C46.9306 7.71262 47.1545 8.26886 47.4182 8.82245C47.7862 9.59495 48.1346 10.1385 48.5032 10.5075C48.8718 10.8766 49.4148 11.2253 50.1864 11.5938C50.7395 11.8578 51.2949 12.0819 51.9154 12.3321C52.1927 12.4439 52.4834 12.5612 52.7921 12.6893C54.5205 13.4069 57.0418 14.5221 58.139 17.0397C58.2901 17.3864 58.4351 17.7363 58.5739 18.0894C59.5792 20.6474 58.5833 23.2223 57.8676 24.9536C57.7396 25.2631 57.6169 25.5515 57.4997 25.827C57.2377 26.443 57.0027 26.9955 56.798 27.5737C56.5123 28.3808 56.3746 29.0119 56.3746 29.5339C56.3746 30.0559 56.5123 30.687 56.798 31.4941C57.0027 32.0723 57.2372 32.6238 57.4993 33.2397C57.6164 33.5152 57.7396 33.8048 57.8676 34.1142C58.5833 35.8455 59.5792 38.4204 58.5739 40.9784C58.4355 41.3305 58.2909 41.6795 58.1402 42.0253C57.0431 44.5433 54.5213 45.6587 52.7928 46.3762C52.4842 46.5043 52.1942 46.6213 51.9171 46.733C51.2965 46.9833 50.7398 47.2078 50.1866 47.4719C49.4149 47.8404 48.8719 48.1891 48.5032 48.5582C48.1346 48.9273 47.7862 49.4709 47.4182 50.2436C47.1545 50.7972 46.9308 51.3532 46.681 51.9742C46.5692 52.2519 46.4519 52.5434 46.3238 52.8528C45.6071 54.5834 44.4931 57.1082 41.978 58.2067C41.6323 58.3576 41.2834 58.5025 40.9314 58.6412C38.3764 59.6477 35.8044 58.6506 34.0751 57.934C33.7658 57.8059 33.4775 57.683 33.2022 57.5656C32.5869 57.3033 32.0355 57.0681 31.458 56.8633C30.6519 56.5773 30.0215 56.4394 29.5 56.4394C28.9786 56.4394 28.3482 56.5773 27.5421 56.8633C26.9648 57.0681 26.4142 57.3028 25.7992 57.565C25.5237 57.6825 25.2345 57.8058 24.925 57.9341C23.1957 58.6506 20.6237 59.6477 18.0687 58.6412C17.7166 58.5025 17.3676 58.3576 17.0219 58.2066C14.5069 57.1081 13.3929 54.5836 12.6761 52.8532C12.548 52.5438 12.431 52.2531 12.3193 51.9754C12.0693 51.3541 11.8456 50.798 11.5818 50.2442C11.2137 49.4716 10.8654 48.928 10.4967 48.559C10.1281 48.1899 9.58513 47.8411 8.8134 47.4727C8.26046 47.2087 7.70513 46.9847 7.08483 46.7345C6.80788 46.6228 6.51585 46.5051 6.20742 46.377C4.47896 45.6595 1.95736 44.5442 0.860187 42.0263C0.709384 41.6802 0.564647 41.3309 0.426113 40.9784C-0.579217 38.4204 0.41671 35.8455 1.13244 34.1142C1.26051 33.8045 1.3833 33.5158 1.50059 33.2401C1.76261 32.6241 1.99735 32.0723 2.202 31.4941C2.48765 30.687 2.62536 30.0559 2.62536 29.5339C2.62536 29.0119 2.48765 28.3808 2.202 27.5737C1.99735 26.9955 1.76277 26.4441 1.50075 25.8281C1.38341 25.5522 1.26057 25.2635 1.13245 24.9535C0.416713 23.2223 -0.579211 20.6473 0.42612 18.0894C0.564772 17.7366 0.709638 17.387 0.860581 17.0406C1.95779 14.5229 4.47926 13.4076 6.20765 12.69C6.51656 12.5618 6.8069 12.4447 7.08424 12.3329C7.7047 12.0826 8.26043 11.8585 8.81348 11.5944C9.58517 11.226 10.1281 10.8772 10.4967 10.5082C10.8654 10.1391 11.2137 9.59556 11.5818 8.823C11.8455 8.26933 12.0693 7.71328 12.3192 7.09215C12.431 6.81442 12.548 6.5236 12.6762 6.21424C13.3929 4.48391 14.507 1.95963 17.0218 0.861244C17.3675 0.710251 17.7165 0.565332 18.0686 0.426625C20.6236 -0.579863 23.1956 0.417204 24.9249 1.13376C25.2344 1.26203 25.5229 1.38501 25.7984 1.50249C26.4137 1.76481 26.9645 1.99965 27.542 2.20453C28.3482 2.49052 28.9785 2.62838 29.5 2.62838C30.0214 2.62838 30.6518 2.49052 31.4579 2.20453C32.0354 1.99965 32.5863 1.7648 33.2015 1.50248C33.477 1.38501 33.7655 1.26201 34.0751 1.13375ZM21.4779 24.7571C22.376 25.6563 23.8321 25.6563 24.7301 24.7571C25.6282 23.858 25.6282 22.4002 24.7301 21.5011C23.8321 20.602 22.376 20.602 21.4779 21.5011C20.5798 22.4002 20.5798 23.858 21.4779 24.7571ZM34.2701 37.564C35.1682 38.4631 36.6243 38.4631 37.5224 37.564C38.4205 36.6648 38.4205 35.2071 37.5224 34.3079C36.6243 33.4088 35.1682 33.4088 34.2701 34.3079C33.372 35.2071 33.372 36.6648 34.2701 37.564ZM37.5455 21.4775C38.3965 22.3295 38.3965 23.7107 37.5455 24.5627L24.5364 37.5867C23.6854 38.4387 22.3057 38.4387 21.4548 37.5867C20.6038 36.7348 20.6038 35.3535 21.4548 34.5016L34.4639 21.4775C35.3149 20.6256 36.6945 20.6256 37.5455 21.4775Z" fill="white"/>
</svg>
