<svg width="29" height="29" viewBox="0 0 29 29" fill="none" xmlns="http://www.w3.org/2000/svg">
<path d="M10.4657 0.383404C4.1864 2.15759 0.000179199 7.81091 0.000179199 14.5769C-0.0143403 17.5211 0.853774 20.4014 2.49129 22.8421C4.1288 25.2828 6.4597 27.1705 9.17995 28.2591C11.6319 29.2214 16.9544 29.2514 19.496 28.3192C22.9347 27.0262 26.4032 23.8387 27.7488 20.7113C29.5728 16.4412 29.3934 11.2991 27.2704 7.35985C25.5959 4.23248 21.918 1.3156 18.4195 0.383404C16.5357 -0.127801 12.2897 -0.127801 10.4657 0.383404ZM15.6985 6.7885C15.9078 7.60041 16.1171 7.78084 16.8048 7.78084C17.971 7.78084 18.9578 8.80325 18.5391 9.58509C18.0906 10.4571 17.8514 10.4872 16.1171 10.1264C14.2034 9.73545 12.7083 10.2166 12.7083 11.239C12.7083 11.8404 12.9475 11.9908 16.5357 13.6747C18.4793 14.5468 19.4362 15.7496 19.4362 17.2532C19.4362 18.6364 18.3896 20.0798 16.8946 20.7414C15.8779 21.1924 15.5789 21.4932 15.4892 22.1246C15.3098 23.7785 13.426 23.8086 13.2167 22.1547C13.1569 21.5533 12.8578 21.3729 11.4226 20.982C9.92749 20.6211 9.71818 20.4707 9.62848 19.749C9.50887 18.6665 10.4358 18.1252 11.7216 18.5763C12.7382 18.9371 14.622 18.9973 15.3696 18.7266C15.5491 18.6598 15.7129 18.5563 15.8507 18.4228C15.9885 18.2892 16.0973 18.1284 16.1704 17.9504C16.2434 17.7725 16.279 17.5813 16.275 17.3888C16.271 17.1964 16.2274 17.0069 16.147 16.8322C15.9975 16.5014 14.8911 15.8699 13.6951 15.4188C11.0039 14.4085 9.56867 13.0733 9.56867 11.6299C9.56867 10.1865 10.5255 8.83332 11.9309 8.20183C12.798 7.81091 13.1569 7.48013 13.1569 7.02907C13.1569 6.15701 13.7549 5.64581 14.6519 5.73602C15.1902 5.79616 15.4593 6.0668 15.6985 6.7885Z" fill="#33B787"/>
<path d="M10.4657 0.383404C4.1864 2.15759 0.000179199 7.81091 0.000179199 14.5769C-0.0143403 17.5211 0.853774 20.4014 2.49129 22.8421C4.1288 25.2828 6.4597 27.1705 9.17995 28.2591C11.6319 29.2214 16.9544 29.2514 19.496 28.3192C22.9347 27.0262 26.4032 23.8387 27.7488 20.7113C29.5728 16.4412 29.3934 11.2991 27.2704 7.35985C25.5959 4.23248 21.918 1.3156 18.4195 0.383404C16.5357 -0.127801 12.2897 -0.127801 10.4657 0.383404ZM15.6985 6.7885C15.9078 7.60041 16.1171 7.78084 16.8048 7.78084C17.971 7.78084 18.9578 8.80325 18.5391 9.58509C18.0906 10.4571 17.8514 10.4872 16.1171 10.1264C14.2034 9.73545 12.7083 10.2166 12.7083 11.239C12.7083 11.8404 12.9475 11.9908 16.5357 13.6747C18.4793 14.5468 19.4362 15.7496 19.4362 17.2532C19.4362 18.6364 18.3896 20.0798 16.8946 20.7414C15.8779 21.1924 15.5789 21.4932 15.4892 22.1246C15.3098 23.7785 13.426 23.8086 13.2167 22.1547C13.1569 21.5533 12.8578 21.3729 11.4226 20.982C9.92749 20.6211 9.71818 20.4707 9.62848 19.749C9.50887 18.6665 10.4358 18.1252 11.7216 18.5763C12.7382 18.9371 14.622 18.9973 15.3696 18.7266C15.5491 18.6598 15.7129 18.5563 15.8507 18.4228C15.9885 18.2892 16.0973 18.1284 16.1704 17.9504C16.2434 17.7725 16.279 17.5813 16.275 17.3888C16.271 17.1964 16.2274 17.0069 16.147 16.8322C15.9975 16.5014 14.8911 15.8699 13.6951 15.4188C11.0039 14.4085 9.56867 13.0733 9.56867 11.6299C9.56867 10.1865 10.5255 8.83332 11.9309 8.20183C12.798 7.81091 13.1569 7.48013 13.1569 7.02907C13.1569 6.15701 13.7549 5.64581 14.6519 5.73602C15.1902 5.79616 15.4593 6.0668 15.6985 6.7885Z" fill="#33B787"/>
<path d="M10.4657 0.383404C4.1864 2.15759 0.000179199 7.81091 0.000179199 14.5769C-0.0143403 17.5211 0.853774 20.4014 2.49129 22.8421C4.1288 25.2828 6.4597 27.1705 9.17995 28.2591C11.6319 29.2214 16.9544 29.2514 19.496 28.3192C22.9347 27.0262 26.4032 23.8387 27.7488 20.7113C29.5728 16.4412 29.3934 11.2991 27.2704 7.35985C25.5959 4.23248 21.918 1.3156 18.4195 0.383404C16.5357 -0.127801 12.2897 -0.127801 10.4657 0.383404ZM15.6985 6.7885C15.9078 7.60041 16.1171 7.78084 16.8048 7.78084C17.971 7.78084 18.9578 8.80325 18.5391 9.58509C18.0906 10.4571 17.8514 10.4872 16.1171 10.1264C14.2034 9.73545 12.7083 10.2166 12.7083 11.239C12.7083 11.8404 12.9475 11.9908 16.5357 13.6747C18.4793 14.5468 19.4362 15.7496 19.4362 17.2532C19.4362 18.6364 18.3896 20.0798 16.8946 20.7414C15.8779 21.1924 15.5789 21.4932 15.4892 22.1246C15.3098 23.7785 13.426 23.8086 13.2167 22.1547C13.1569 21.5533 12.8578 21.3729 11.4226 20.982C9.92749 20.6211 9.71818 20.4707 9.62848 19.749C9.50887 18.6665 10.4358 18.1252 11.7216 18.5763C12.7382 18.9371 14.622 18.9973 15.3696 18.7266C15.5491 18.6598 15.7129 18.5563 15.8507 18.4228C15.9885 18.2892 16.0973 18.1284 16.1704 17.9504C16.2434 17.7725 16.279 17.5813 16.275 17.3888C16.271 17.1964 16.2274 17.0069 16.147 16.8322C15.9975 16.5014 14.8911 15.8699 13.6951 15.4188C11.0039 14.4085 9.56867 13.0733 9.56867 11.6299C9.56867 10.1865 10.5255 8.83332 11.9309 8.20183C12.798 7.81091 13.1569 7.48013 13.1569 7.02907C13.1569 6.15701 13.7549 5.64581 14.6519 5.73602C15.1902 5.79616 15.4593 6.0668 15.6985 6.7885Z" fill="#33B787"/>
</svg>
