<svg width="60" height="52" viewBox="0 0 60 52" fill="none" xmlns="http://www.w3.org/2000/svg">
<g clip-path="url(#clip0_105_134)">
<path d="M10.0148 0.656683C1.52122 1.87754 -2.15509 4.52974 1.73251 6.50837C7.47939 9.49736 25.1426 10.3393 35.749 8.1923C44.2425 6.42417 44.7919 3.43518 36.9744 1.49865C30.636 -0.101089 18.0013 -0.479976 10.0148 0.656683Z" fill="white"/>
<path d="M0.16904 10.634C0.04227 10.9708 1.35314e-05 12.5285 0.0845265 14.0861C0.211296 16.8225 0.295809 17.033 1.52125 17.7487C3.54956 18.9274 9.0429 20.1483 13.9869 20.5272L18.4661 20.8219L19.3535 19.3652C20.1505 18.0866 21.0704 16.8882 22.1002 15.7869L23.9594 13.682L20.9592 13.7241C14.1559 13.8503 5.15531 12.5032 1.98607 10.9035C0.718374 10.213 0.380322 10.1709 0.16904 10.634Z" fill="white"/>
<path d="M33.8052 11.9391C24.9313 14.4229 19.0154 22.3374 19.0154 31.8096C18.9949 35.9314 20.2217 39.9638 22.5358 43.3807C24.8499 46.7976 28.1439 49.4404 31.9882 50.9644C35.4532 52.3115 42.9749 52.3536 46.5667 51.0486C51.4262 49.2383 56.3279 44.7759 58.2295 40.3976C60.8071 34.4197 60.5536 27.2208 57.5533 21.7059C55.187 17.3277 49.9894 13.2442 45.0454 11.9391C42.3833 11.2234 36.3828 11.2234 33.8052 11.9391ZM41.2001 20.9061C41.4959 22.0427 41.7917 22.2953 42.7636 22.2953C44.4116 22.2953 45.806 23.7267 45.2144 24.8212C44.5806 26.0421 44.2426 26.0842 41.7917 25.579C39.0873 25.0317 36.9744 25.7053 36.9744 27.1366C36.9744 27.9786 37.3125 28.1891 42.3833 30.5466C45.1299 31.7675 46.4821 33.4514 46.4821 35.5563C46.4821 37.4929 45.0032 39.5136 42.8903 40.4397C41.4536 41.0712 41.0311 41.4922 40.9043 42.3763C40.6507 44.6917 37.9886 44.7338 37.6928 42.4184C37.6083 41.5764 37.1857 41.3238 35.1574 40.7765C33.0446 40.2714 32.7488 40.0609 32.622 39.0505C32.453 37.535 33.7629 36.7772 35.58 37.4087C37.0167 37.9138 39.6788 37.998 40.7353 37.6192C40.9889 37.5256 41.2204 37.3807 41.4152 37.1937C41.6099 37.0067 41.7637 36.7816 41.8669 36.5325C41.9701 36.2834 42.0205 36.0157 42.0148 35.7463C42.0091 35.4769 41.9475 35.2115 41.8339 34.9669C41.6226 34.5039 40.0592 33.6198 38.3689 32.9883C34.5658 31.5738 32.5375 29.7046 32.5375 27.6839C32.5375 25.6632 33.8897 23.7688 35.8758 22.8847C37.1012 22.3374 37.6083 21.8743 37.6083 21.2429C37.6083 20.022 38.4534 19.3063 39.7211 19.4326C40.4817 19.5168 40.862 19.8957 41.2001 20.9061Z" fill="white"/>
<path d="M0 24.9054C0 28.3996 0.295795 28.9048 3.00021 30.0414C4.52144 30.6729 10.1838 31.7675 13.5643 32.1042L15.5504 32.2726L15.8039 30.1256C15.912 28.9669 16.0813 27.8146 16.311 26.6735L16.5645 25.4106L11.4093 24.6949C8.57807 24.2739 5.15529 23.5583 3.84534 23.0952C2.53539 22.6321 1.14093 22.169 0.760617 22.0006C0.0845129 21.7901 0 22.1269 0 24.9054Z" fill="white"/>
<path d="M0.211284 33.5778C-0.169025 33.9567 1.07515e-06 39.1769 0.422566 39.9767C0.929644 40.9029 4.26791 42.208 8.02874 42.8815C12.1699 43.6393 19.0577 44.1024 18.8464 43.5551C17.5364 40.6503 16.48 37.956 16.48 37.3245C16.48 36.7773 16.0997 36.6089 14.8743 36.6089C12.1276 36.6089 5.40883 35.3038 2.87344 34.2935C1.52123 33.7883 0.338053 33.4515 0.211284 33.5778Z" fill="white"/>
</g>
<defs>
<clipPath id="clip0_105_134">
<rect width="60" height="52" fill="white"/>
</clipPath>
</defs>
</svg>
