<svg width="258" height="88" viewBox="0 0 258 88" fill="none" xmlns="http://www.w3.org/2000/svg">
<g clip-path="url(#clip0_102_3)">
<path d="M79.0763 2.44444C76.2417 0.806667 73.4315 0 65.6607 0H22.3105C14.6619 0 11.7295 0.806667 8.89487 2.44444C6.16669 3.92736 3.92608 6.16871 2.44364 8.89778C0.806403 11.7333 0 14.6667 0 22.3178V65.6822C0 73.3333 0.806403 76.2667 2.44364 79.1022C3.93977 81.8937 6.22649 84.1812 9.01705 85.6778C11.8517 87.1933 14.6619 88.1222 22.4327 88.1222H65.6607C73.4315 88.1222 76.2417 87.3156 79.0763 85.6778C81.8776 84.1956 84.1681 81.9044 85.6497 79.1022C87.1648 76.2667 88.0934 73.4556 88.0934 65.6822V22.3178C88.0934 14.5444 87.287 11.7333 85.6497 8.89778C84.1345 6.15151 81.8497 3.90836 79.0763 2.44444Z" fill="white"/>
<path d="M35.4573 50.2089C32.5818 47.9668 30.675 44.7073 30.1295 41.1013C29.584 37.4953 30.4413 33.8173 32.5249 30.8245C34.6511 27.6539 37.9137 25.4217 41.6384 24.5891C45.3632 23.7566 49.2653 24.3874 52.5384 26.3512L55.6662 28.3556L56.9125 26.4734C57.2657 25.8977 57.4958 25.2551 57.5884 24.586C57.6809 23.917 57.6339 23.236 57.4502 22.586C57.2665 21.9361 56.9502 21.3312 56.5212 20.8096C56.0922 20.2881 55.5598 19.8611 54.9576 19.5556C47.6266 16.5 42.7393 14.3978 35.7261 11.7089C34.7375 11.3662 33.6651 11.3498 32.6666 11.6622C31.6681 11.9747 30.7961 12.5994 30.179 13.4445C29.9102 13.86 23.3612 23.4912 17.3499 32.2667C16.2663 33.8722 15.5114 35.6764 15.1287 37.5753C14.746 39.4743 14.7432 41.4302 15.1203 43.3302C15.4975 45.2302 16.2471 47.0367 17.3261 48.6453C18.405 50.2539 19.7918 51.6327 21.4063 52.7023C23.1902 53.9245 25.9271 55.6845 28.3463 57.2734L32.305 59.8889L36.1415 54.1934C36.5122 53.5543 36.6467 52.8053 36.5217 52.077C36.3966 51.3488 36.0199 50.6877 35.4573 50.2089Z" fill="#6100D1"/>
<path d="M66.6138 35.5178C64.8055 34.32 62.0686 32.5845 59.6738 30.9956L55.6418 28.3556L51.8541 34.0511C51.4942 34.6702 51.3631 35.3961 51.4837 36.102C51.6043 36.8079 51.9689 37.449 52.5139 37.9134C55.3895 40.1926 57.2955 43.4766 57.8486 47.1047C58.4017 50.7328 57.5608 54.4359 55.4952 57.4689C53.3528 60.627 50.0865 62.8483 46.3628 63.6796C42.6391 64.5109 38.7386 63.8895 35.4573 61.9423L32.2805 59.8645L31.0587 61.6978C30.6734 62.2684 30.4168 62.9161 30.307 63.5959C30.1971 64.2757 30.2366 64.9712 30.4227 65.6342C30.6087 66.2972 30.9368 66.9117 31.3843 67.435C31.8317 67.9583 32.3877 68.3778 33.0136 68.6645C40.3446 71.6711 45.2319 73.7734 52.2207 76.4378C53.2092 76.7806 54.2816 76.7969 55.2802 76.4845C56.2787 76.1721 57.1506 75.5474 57.7678 74.7023C58.061 74.2867 64.61 64.68 70.6213 55.9289C71.7329 54.3372 72.5123 52.5376 72.9129 50.6378C73.3136 48.7379 73.3273 46.7768 72.9532 44.8715C72.5791 42.9663 71.8249 41.156 70.7357 39.5489C69.6465 37.9418 68.2446 36.5708 66.6138 35.5178Z" fill="#81F5D6"/>
<path d="M55.4952 57.3956C57.5665 54.3644 58.4108 50.6598 57.8575 47.03C57.3041 43.4003 55.3944 40.1158 52.5139 37.84C51.9689 37.3756 51.6043 36.7345 51.4837 36.0286C51.3631 35.3227 51.4942 34.5968 51.8541 33.9778L55.6418 28.2822L52.5384 26.2533C49.2609 24.2979 45.3586 23.6743 41.6353 24.5111C37.912 25.3479 34.6513 27.5813 32.5249 30.7511C30.4413 33.7439 29.584 37.4219 30.1295 41.0279C30.675 44.6339 32.5818 47.8935 35.4573 50.1356C36.0021 50.6108 36.3656 51.2601 36.4859 51.9732C36.6062 52.6862 36.4758 53.4189 36.1171 54.0467L32.2806 59.7178L35.4573 61.7956C38.73 63.75 42.6245 64.3829 46.3474 63.5654C50.0703 62.7479 53.3417 60.5415 55.4952 57.3956Z" fill="#BC7CF2"/>
<path d="M111.528 54.0711C111.261 53.8366 111.048 53.5468 110.905 53.2217C110.761 52.8966 110.691 52.5442 110.697 52.1889C110.735 51.5274 111.024 50.9054 111.506 50.4508C111.987 49.9961 112.625 49.7434 113.287 49.7444C113.977 49.7556 114.635 50.0364 115.12 50.5266C116.781 52.2557 119.053 53.2649 121.449 53.3378C123.893 53.3378 125.823 52.3355 125.823 50.3066C125.823 48.2778 124.21 47.8622 122.011 46.9333L119.25 45.7844C114.9 43.9511 112.188 41.9711 112.188 37.8889C112.188 32.8778 116.391 30.0422 121.742 30.0422C124.934 29.9839 128.021 31.1772 130.344 33.3666C130.76 33.6781 131.066 34.114 131.217 34.611C131.368 35.1081 131.357 35.6404 131.186 36.1309C131.014 36.6213 130.691 37.0443 130.263 37.3384C129.834 37.6326 129.324 37.7826 128.805 37.7666C128.12 37.7114 127.475 37.4272 126.972 36.96C125.447 35.7537 123.564 35.0913 121.62 35.0778C119.47 35.0778 117.93 35.9089 117.93 37.6689C117.93 39.4289 119.03 39.8689 121.522 40.8711L124.113 41.9222C129 43.9511 131.444 46.1022 131.444 50.0866C131.444 55.5378 126.801 58.3489 121.4 58.3489C119.549 58.3559 117.716 57.9795 116.017 57.2433C114.318 56.5071 112.789 55.427 111.528 54.0711Z" fill="white"/>
<path d="M165.85 44.1222C165.963 45.931 165.706 47.7439 165.093 49.4494C164.481 51.155 163.526 52.7174 162.288 54.0405C161.05 55.3637 159.555 56.4197 157.894 57.1438C156.233 57.8679 154.442 58.2447 152.63 58.2511C150.905 58.3111 149.188 57.9869 147.603 57.3021C146.018 56.6172 144.605 55.5888 143.466 54.2911V55.2689C143.49 55.6522 143.434 56.0362 143.304 56.3973C143.173 56.7584 142.97 57.0888 142.706 57.3682C142.443 57.6477 142.125 57.8702 141.773 58.022C141.42 58.1739 141.04 58.2519 140.656 58.2511C140.264 58.2616 139.874 58.1912 139.51 58.0444C139.147 57.8975 138.817 57.6774 138.542 57.3977C138.267 57.118 138.052 56.7846 137.912 56.4184C137.771 56.0522 137.707 55.6609 137.724 55.2689V18.6023C137.71 18.2112 137.777 17.8215 137.919 17.4568C138.061 17.0922 138.276 16.7603 138.55 16.4813C138.824 16.2024 139.152 15.9821 139.515 15.8341C139.877 15.686 140.265 15.6132 140.656 15.62C141.044 15.6126 141.429 15.6855 141.788 15.8344C142.146 15.9832 142.47 16.2047 142.739 16.4849C143.007 16.765 143.215 17.0978 143.348 17.4622C143.482 17.8266 143.539 18.2148 143.515 18.6023V33.88C144.63 32.5834 146.02 31.5526 147.585 30.8631C149.149 30.1737 150.848 29.8431 152.557 29.8956C154.381 29.8983 156.186 30.2753 157.859 31.0034C159.532 31.7314 161.038 32.795 162.284 34.1284C163.53 35.4618 164.489 37.0366 165.103 38.7556C165.716 40.4745 165.97 42.3011 165.85 44.1222ZM159.912 44.1222C159.982 42.9905 159.82 41.8563 159.435 40.7896C159.051 39.7229 158.452 38.7462 157.676 37.9196C156.9 37.093 155.963 36.4339 154.923 35.9831C153.883 35.5322 152.762 35.299 151.628 35.2978C150.491 35.2822 149.363 35.5067 148.318 35.9567C147.273 36.4068 146.335 37.0723 145.565 37.9097C144.794 38.7471 144.209 39.7376 143.848 40.8165C143.486 41.8954 143.356 43.0385 143.466 44.1711C143.364 45.2999 143.499 46.4376 143.864 47.5107C144.229 48.5837 144.815 49.5681 145.584 50.4C146.354 51.232 147.289 51.893 148.331 52.3401C149.372 52.7872 150.495 53.0105 151.628 52.9956C152.775 52.9927 153.909 52.7523 154.959 52.2895C156.008 51.8267 156.951 51.1516 157.727 50.3065C158.502 49.4615 159.095 48.4649 159.467 47.3795C159.839 46.2942 159.982 45.1435 159.888 44L159.912 44.1222Z" fill="white"/>
<path d="M199.768 44.2934C199.843 46.0826 199.558 47.8687 198.929 49.5453C198.3 51.2219 197.34 52.7548 196.107 54.0526C194.873 55.3504 193.391 56.3866 191.749 57.0995C190.107 57.8124 188.338 58.1875 186.548 58.2023C184.406 58.2744 182.282 57.7816 180.391 56.7733C178.499 55.765 176.906 54.2767 175.771 52.4578V66.7578C175.781 66.9425 175.753 67.1273 175.689 67.3007C175.624 67.474 175.525 67.6322 175.396 67.7653C175.268 67.8983 175.113 68.0035 174.942 68.0741C174.771 68.1447 174.588 68.1792 174.403 68.1756C174.22 68.1724 174.039 68.1332 173.872 68.0602C173.704 67.9873 173.552 67.8819 173.425 67.7503C173.298 67.6186 173.198 67.4632 173.131 67.2929C173.064 67.1226 173.031 66.9408 173.034 66.7578V31.7778C173.034 31.4148 173.179 31.0666 173.435 30.8099C173.692 30.5532 174.04 30.4089 174.403 30.4089C174.766 30.4089 175.114 30.5532 175.371 30.8099C175.627 31.0666 175.771 31.4148 175.771 31.7778V36.1778C176.909 34.3635 178.504 32.88 180.395 31.8761C182.286 30.8722 184.408 30.3831 186.548 30.4578C188.332 30.473 190.094 30.8457 191.731 31.5541C193.369 32.2625 194.847 33.2921 196.08 34.582C197.312 35.8719 198.274 37.3959 198.907 39.064C199.541 40.732 199.833 42.5102 199.768 44.2934ZM196.909 44.2934C196.988 42.8429 196.772 41.3914 196.273 40.0272C195.774 38.663 195.003 37.4147 194.006 36.3582C193.009 35.3017 191.808 34.4592 190.475 33.8818C189.143 33.3045 187.707 33.0045 186.255 33C179.974 33 175.771 37.5223 175.771 44.2445C175.771 50.9667 179.974 55.5623 186.255 55.5623C187.701 55.5608 189.133 55.2653 190.462 54.6937C191.791 54.122 192.99 53.2862 193.986 52.237C194.983 51.1877 195.755 49.9469 196.258 48.5898C196.76 47.2327 196.982 45.7876 196.909 44.3423V44.2934Z" fill="white"/>
<path d="M226.453 40.9444V56.8088C226.502 56.9847 226.502 57.1707 226.453 57.3466C226.393 57.5154 226.292 57.6666 226.159 57.7866C226.041 57.9269 225.89 58.036 225.719 58.1044C225.542 58.1413 225.359 58.1413 225.182 58.1044C224.996 58.1076 224.811 58.0742 224.638 58.0059C224.464 57.9376 224.306 57.8359 224.172 57.7065C224.039 57.5771 223.931 57.4226 223.857 57.2518C223.783 57.081 223.743 56.8973 223.74 56.7111V53.7777C222.672 55.2434 221.259 56.423 219.627 57.2118C217.994 58.0007 216.192 58.3744 214.381 58.2999C208.907 58.2999 205.217 55.3666 205.217 50.9666C205.217 46.5666 208.858 43.8533 214.479 43.8533H223.74V40.8222C223.74 35.9333 221.052 33.0488 216.409 33.0488C214.996 33.0567 213.602 33.384 212.333 34.0062C211.063 34.6284 209.951 35.5295 209.078 36.6422C208.936 36.8083 208.76 36.9421 208.562 37.0348C208.364 37.1276 208.148 37.177 207.93 37.1799C207.613 37.1814 207.307 37.0644 207.072 36.8519C206.837 36.6393 206.689 36.3466 206.659 36.0311C206.693 35.5448 206.911 35.09 207.27 34.7599C208.395 33.3843 209.817 32.2823 211.43 31.537C213.043 30.7917 214.804 30.4227 216.58 30.4577C222.714 30.4577 226.453 34.3688 226.453 40.9444ZM223.642 47.7155V46.2244H214.674C210.349 46.2244 207.979 47.9355 207.979 50.9177C207.979 53.8999 210.593 55.8066 214.552 55.8066C215.681 55.876 216.812 55.7214 217.881 55.3518C218.95 54.9821 219.935 54.4047 220.78 53.6527C221.625 52.9007 222.313 51.989 222.804 50.9701C223.295 49.9511 223.58 48.845 223.642 47.7155Z" fill="white"/>
<path d="M258 31.7777C257.987 31.9884 257.938 32.1953 257.853 32.3889L244.951 61.4044C242.898 65.9266 239.917 68.0778 235.885 68.0778C235.113 68.0919 234.343 68.0181 233.588 67.8577C233.288 67.8024 233.015 67.6464 232.815 67.4153C232.615 67.1842 232.5 66.892 232.488 66.5866C232.484 66.4225 232.515 66.2593 232.578 66.1077C232.641 65.9561 232.736 65.8195 232.855 65.7066C233.086 65.4659 233.401 65.3254 233.735 65.3155C234.174 65.3155 235.005 65.5355 235.665 65.5355C237.156 65.5523 238.612 65.0849 239.815 64.2034C241.018 63.3219 241.903 62.0738 242.336 60.6466L243.9 57.0533L232.977 32.4866C232.869 32.2831 232.81 32.057 232.806 31.8266C232.769 31.6575 232.769 31.4824 232.806 31.3133C232.875 31.1419 232.974 30.9845 233.099 30.8489C233.239 30.7286 233.395 30.6297 233.564 30.5555C233.733 30.5206 233.907 30.5206 234.077 30.5555C234.371 30.5609 234.658 30.6454 234.908 30.8C235.131 30.9838 235.307 31.2185 235.421 31.4844L245.44 53.7777L255.214 31.3866C255.313 31.1059 255.499 30.8642 255.746 30.697C255.992 30.5299 256.285 30.446 256.583 30.4577C256.763 30.4544 256.943 30.4876 257.11 30.5552C257.278 30.6228 257.43 30.7235 257.558 30.8513C257.685 30.9791 257.786 31.1313 257.854 31.2989C257.921 31.4665 257.954 31.646 257.951 31.8266L258 31.7777Z" fill="white"/>
</g>
<defs>
<clipPath id="clip0_102_3">
<rect width="258" height="88" fill="white"/>
</clipPath>
</defs>
</svg>
