<svg width="60" height="62" viewBox="0 0 60 62" fill="none" xmlns="http://www.w3.org/2000/svg">
<path fill-rule="evenodd" clip-rule="evenodd" d="M4 0H36.2381C38.4473 0 40.2381 1.79086 40.2381 4V29.4524L18.5715 29.4524C17.743 29.4524 17.0715 30.124 17.0715 30.9524C17.0715 31.7809 17.743 32.4524 18.5715 32.4524L40.2381 32.4524V57.9048C40.2381 60.114 38.4473 61.9048 36.2381 61.9048H4C1.79086 61.9048 0 60.114 0 57.9048V43.3334V18.5715V4C0 1.79086 1.79086 0 4 0ZM40.2381 32.4524H55.1883L48.4632 39.1775C47.8774 39.7633 47.8774 40.713 48.4632 41.2988C49.049 41.8846 49.9988 41.8846 50.5845 41.2988L57.6816 34.2018C59.4761 32.4072 59.4762 29.4977 57.6816 27.7031L50.5845 20.606C49.9988 20.0203 49.049 20.0203 48.4632 20.606C47.8774 21.1918 47.8774 22.1416 48.4632 22.7274L55.1883 29.4524L40.2381 29.4524V32.4524Z" fill="white"/>
</svg>
