<svg width="60" height="60" viewBox="0 0 60 60" fill="none" xmlns="http://www.w3.org/2000/svg">
<path fill-rule="evenodd" clip-rule="evenodd" d="M15.8621 0C7.10169 0 0 7.10169 0 15.8621V43.4483C0 52.2086 7.10169 59.3103 15.8621 59.3103H43.4483C52.2086 59.3103 59.3103 52.2086 59.3103 43.4483V15.8621C59.3103 14.858 59.217 13.8758 59.0387 12.9236C57.8128 13.971 56.2216 14.6035 54.4828 14.6035C50.6072 14.6035 47.4655 11.4617 47.4655 7.58624C47.4655 5.13171 48.7257 2.97152 50.6344 1.7174C48.4771 0.619177 46.035 0 43.4483 0H15.8621ZM52.1386 2.5903C50.2636 3.47159 48.9655 5.37731 48.9655 7.58624C48.9655 10.6333 51.4357 13.1035 54.4828 13.1035C56.1324 13.1035 57.6129 12.3795 58.6239 11.232C57.5318 7.64791 55.2048 4.60213 52.1386 2.5903ZM12.0049 41.1224C11.385 40.5729 11.328 39.6249 11.8776 39.0049L24.1276 25.1868C24.6628 24.583 25.5797 24.5108 26.2029 25.0233L35.5865 32.7415L46.8776 20.0049C47.4271 19.385 48.3751 19.328 48.9951 19.8776C49.615 20.4271 49.672 21.3752 49.1224 21.9951L36.8724 35.8132C36.3372 36.417 35.4203 36.4892 34.7971 35.9767L25.4135 28.2585L14.1224 40.9951C13.5729 41.615 12.6249 41.672 12.0049 41.1224Z" fill="white"/>
<circle r="5.51724" transform="matrix(-1 0 0 1 54.4828 7.58627)" fill="white"/>
</svg>
