<svg width="60" height="43" viewBox="0 0 60 43" fill="none" xmlns="http://www.w3.org/2000/svg">
<g clip-path="url(#clip0_105_132)">
<path d="M59.975 6.58381L59.9707 3.21392C59.9706 2.79147 59.9008 2.37318 59.7652 1.98298C59.6296 1.59278 59.4309 1.2383 59.1804 0.939823C58.93 0.641343 58.6327 0.404709 58.3057 0.243449C57.9786 0.0821882 57.6281 -0.000536758 57.2742 2.6207e-06L2.69309 0.0615719C2.33902 0.0619759 1.98848 0.145647 1.66149 0.307805C1.33451 0.469963 1.03749 0.707432 0.787396 1.00665C0.537306 1.30586 0.339044 1.66096 0.203936 2.05166C0.0688275 2.44237 -0.000480114 2.86102 -2.8323e-05 3.2837V6.62075H8.68192V6.64128L59.975 6.58381ZM59.9811 16.4349L0.00942726 16.5026L0.029198 39.7861C0.0307921 40.6384 0.315652 41.4551 0.821232 42.0569C1.32681 42.6587 2.01179 42.9964 2.72576 42.9959L57.3103 42.9354C58.024 42.9334 58.708 42.5937 59.2122 41.9906C59.7165 41.3876 59.9997 40.5704 60 39.7184L59.9811 16.4349ZM20.7077 30.13L4.46129 30.1566C4.25367 30.1566 4.05453 30.0583 3.90756 29.8833C3.76059 29.7082 3.67779 29.4707 3.67734 29.2228V26.8688C3.67722 26.7462 3.69734 26.6248 3.73655 26.5114C3.77576 26.3981 3.83328 26.2951 3.90584 26.2082C3.9784 26.1214 4.06457 26.0525 4.15943 26.0055C4.25429 25.9584 4.35599 25.9342 4.45871 25.934L20.7051 25.9084C20.8079 25.9081 20.9098 25.932 21.0048 25.9788C21.0999 26.0255 21.1863 26.0941 21.2591 26.1808C21.3319 26.2674 21.3897 26.3703 21.4291 26.4836C21.4686 26.5969 21.489 26.7184 21.4891 26.8411V29.1951C21.4892 29.3178 21.4691 29.4392 21.4299 29.5526C21.3907 29.6659 21.3331 29.7689 21.2606 29.8557C21.188 29.9425 21.1019 30.0114 21.007 30.0585C20.9121 30.1055 20.8104 30.1298 20.7077 30.13ZM28.6719 24.2727L4.32805 24.3004C4.14567 24.3004 3.97075 24.2139 3.84179 24.0599C3.71282 23.906 3.64037 23.6972 3.64037 23.4795V20.8997C3.64037 20.682 3.71282 20.4732 3.84179 20.3192C3.97075 20.1653 4.14567 20.0788 4.32805 20.0788L28.6719 20.0521C28.8543 20.0521 29.0292 20.1386 29.1582 20.2925C29.2871 20.4465 29.3596 20.6553 29.3596 20.873V23.4517C29.3596 23.6695 29.2871 23.8783 29.1582 24.0322C29.0292 24.1862 28.8543 24.2727 28.6719 24.2727Z" fill="white"/>
</g>
<defs>
<clipPath id="clip0_105_132">
<rect width="60" height="43" fill="white"/>
</clipPath>
</defs>
</svg>
