<svg width="60" height="61" viewBox="0 0 60 61" fill="none" xmlns="http://www.w3.org/2000/svg">
<g clip-path="url(#clip0_105_186)">
<path d="M30.1227 11.4015C26.4357 11.4046 22.8323 12.5184 19.7675 14.6022C16.7027 16.686 14.314 19.6464 12.9031 23.1095C11.4921 26.5727 11.1222 30.3832 11.84 34.0599C12.5578 37.7367 14.3312 41.1147 16.9362 43.7674C19.5411 46.4202 22.8609 48.2287 26.4761 48.9645C30.0914 49.7003 33.8401 49.3305 37.2488 47.9017C40.6574 46.4729 43.5732 44.0493 45.6279 40.9368C47.6826 37.8244 48.784 34.1627 48.7931 30.4143C48.7962 27.9192 48.3155 25.4481 47.3787 23.142C46.4419 20.8359 45.0672 18.7401 43.3333 16.9744C41.5994 15.2087 39.5402 13.8077 37.2735 12.8514C35.0067 11.8952 32.5769 11.4025 30.1227 11.4015V11.4015ZM46.024 36.6531C45.1513 38.8574 43.8464 40.8581 42.1887 42.5332C39.4185 45.346 35.7796 47.1024 31.8847 47.5067C27.9898 47.911 24.0768 46.9385 20.8047 44.7529C17.5325 42.5673 15.1011 39.3022 13.9198 35.5073C12.7384 31.7124 12.8794 27.6196 14.319 23.918C15.7585 20.2164 18.4086 17.1322 21.8231 15.1847C25.2377 13.2371 29.208 12.5453 33.0655 13.2256C36.9231 13.9059 40.4322 15.9168 43.002 18.9198C45.5719 21.9227 47.0455 25.7342 47.1746 29.7124C47.2587 32.0814 46.8672 34.443 46.024 36.6531Z" fill="white"/>
<path d="M35.5075 29.7046C34.3891 29.2556 33.247 28.8702 32.0864 28.5504C31.9517 28.5122 31.8331 28.43 31.7489 28.3164C31.6672 28.2031 31.6217 28.067 31.6185 27.9265V23.4892C31.6192 23.3794 31.6483 23.2718 31.7029 23.1772C31.7509 23.0778 31.8253 22.9941 31.9177 22.9355C32.0084 22.8787 32.1107 22.844 32.2168 22.8341C32.3251 22.8276 32.4333 22.8491 32.5313 22.8965C32.9877 23.1237 33.3885 23.4516 33.7043 23.8564C34.0202 24.2611 34.2431 24.7325 34.3569 25.236C34.394 25.3899 34.4872 25.5238 34.6177 25.6103C34.7489 25.6981 34.9071 25.7342 35.0626 25.7117L37.1414 25.4232C37.2325 25.4158 37.32 25.3835 37.3945 25.3296C37.4673 25.2804 37.532 25.2198 37.5863 25.1502C37.6335 25.0736 37.6673 24.9891 37.686 24.9007C37.7052 24.8134 37.7052 24.7228 37.686 24.6355C37.5062 23.7459 37.1514 22.9023 36.6428 22.1556C35.9501 21.2837 35.0265 20.6316 33.9811 20.2762C33.3897 20.0508 32.7783 19.8836 32.1555 19.7771C32.0064 19.7522 31.8706 19.6749 31.7719 19.5587C31.678 19.4391 31.6266 19.2906 31.6262 19.1376V17.3361C31.6238 17.2503 31.6056 17.1656 31.5725 17.0866C31.5405 17.0079 31.4935 16.9364 31.4343 16.8761C31.3751 16.8159 31.3047 16.7682 31.2273 16.7356C31.1491 16.7045 31.0658 16.6886 30.9818 16.6888H29.4017C29.2327 16.6892 29.0704 16.7563 28.9491 16.876C28.8888 16.936 28.8407 17.0075 28.8078 17.0865C28.7749 17.1655 28.7577 17.2503 28.7573 17.3361V19.0284C28.7585 19.1869 28.701 19.3399 28.5963 19.4573C28.4928 19.5757 28.3515 19.653 28.1974 19.6757C27.7407 19.7362 27.2893 19.8326 26.8474 19.9642C26.0697 20.1773 25.3331 20.5227 24.6689 20.9858C23.9765 21.4943 23.4094 22.159 23.012 22.9277C22.6029 23.7101 22.392 24.5839 22.3984 25.47C22.3887 26.4576 22.6631 27.4266 23.1877 28.2579C23.7124 29.0891 24.4645 29.7465 25.3516 30.1491C26.3134 30.576 27.3058 30.9279 28.3201 31.2019C28.4511 31.2435 28.5663 31.3252 28.65 31.4358C28.7335 31.5482 28.7793 31.6849 28.7804 31.8258V37.0742C28.7804 37.1796 28.7568 37.2836 28.7113 37.3783C28.6586 37.4698 28.5882 37.5494 28.5042 37.6123C28.4146 37.6669 28.3157 37.7039 28.2127 37.7214C28.1083 37.7294 28.0034 37.7135 27.9059 37.6747C27.501 37.5191 27.125 37.295 26.7937 37.0118C26.0323 36.3551 25.5107 35.4567 25.3132 34.4617C25.275 34.3021 25.1792 34.1629 25.0447 34.0717C24.9109 33.9834 24.7501 33.9474 24.5922 33.9704L22.4674 34.3135C22.3809 34.3301 22.2979 34.3618 22.2219 34.4071C22.1471 34.46 22.0822 34.526 22.0302 34.602C21.9826 34.6777 21.9512 34.7628 21.9381 34.8516C21.9189 34.9389 21.9189 35.0294 21.9381 35.1167C22.2705 36.7779 23.1499 38.2743 24.4311 39.3591C25.5348 40.1883 26.8338 40.7074 28.1974 40.8642C28.352 40.8855 28.4937 40.9631 28.5963 41.0826C28.6958 41.1995 28.7503 41.3491 28.7497 41.5037V43.2272C28.7501 43.313 28.7672 43.3978 28.8001 43.4768C28.833 43.5558 28.8811 43.6274 28.9414 43.6873C29.0627 43.807 29.225 43.8741 29.394 43.8745H30.9742C31.0628 43.8753 31.1507 43.8578 31.2325 43.8229C31.3143 43.7881 31.3882 43.7366 31.4498 43.6717C31.5101 43.6118 31.5581 43.5402 31.5911 43.4612C31.624 43.3822 31.6411 43.2974 31.6415 43.2116V41.5271C31.6409 41.3725 31.6954 41.2229 31.7949 41.106C31.8996 40.9892 32.0403 40.9122 32.1938 40.8876C33.061 40.7635 33.9075 40.5195 34.7098 40.1624C35.8754 39.6858 36.8781 38.8725 37.594 37.8228C38.2412 36.857 38.5885 35.7161 38.5912 34.5474C38.6288 33.4929 38.3448 32.4524 37.7781 31.5684C37.2107 30.7405 36.4232 30.0939 35.5075 29.7046V29.7046ZM28.7573 27.6146C28.067 27.4196 27.6221 27.2792 27.415 27.2012C26.8954 27.0209 26.434 26.7001 26.0803 26.2732C25.8063 25.929 25.6573 25.4994 25.6584 25.0567C25.6675 24.6872 25.7644 24.3255 25.9407 24.0023C26.117 23.6792 26.3675 23.4041 26.6709 23.2006C27.2825 22.7766 27.9955 22.5287 28.7343 22.4831L28.7573 27.6146ZM33.912 37.1678C33.3957 37.5707 32.7898 37.8385 32.1478 37.9476C32.0848 37.9631 32.019 37.9631 31.956 37.9476C31.8943 37.9318 31.8367 37.9026 31.7873 37.8618C31.7363 37.822 31.6944 37.7715 31.6645 37.7136C31.6401 37.6516 31.6271 37.5855 31.6262 37.5187V32.707C31.6249 32.6391 31.6407 32.572 31.6722 32.512C31.7048 32.4516 31.7492 32.3985 31.8026 32.3561C31.8569 32.3168 31.9204 32.2926 31.9867 32.2859C32.0497 32.2703 32.1155 32.2703 32.1785 32.2859C32.8328 32.4487 33.4642 32.695 34.0578 33.0189C34.379 33.2025 34.6443 33.4723 34.8249 33.7988C35.0014 34.1231 35.0914 34.4888 35.0857 34.8594C35.08 35.3104 34.971 35.7539 34.7673 36.1546C34.5635 36.5553 34.2707 36.9022 33.912 37.1678V37.1678Z" fill="white"/>
<path d="M44.5973 0H15.4027C11.3177 0 7.39992 1.64983 4.51135 4.58654C1.62278 7.52325 0 11.5063 0 15.6594L0 45.3406C0 49.4937 1.62278 53.4768 4.51135 56.4135C7.39992 59.3502 11.3177 61 15.4027 61H44.5973C48.6823 61 52.6001 59.3502 55.4887 56.4135C58.3772 53.4768 60 49.4937 60 45.3406V15.6594C60 11.5063 58.3772 7.52325 55.4887 4.58654C52.6001 1.64983 48.6823 0 44.5973 0V0ZM53.035 32.1923C52.6562 37.8254 50.2824 43.1281 46.3532 47.1184C42.424 51.1088 37.2057 53.5164 31.6645 53.8955H28.4582C22.891 53.4979 17.6524 51.0697 13.7061 47.0576C9.75985 43.0456 7.37143 37.7196 6.98031 32.0597V28.8077C7.36822 23.1805 9.74289 17.8853 13.667 13.8972C17.5911 9.90914 22.8004 7.4968 28.3355 7.10445H31.5495C37.1189 7.49568 42.3611 9.92185 46.3086 13.9352C50.2561 17.9485 52.6425 23.2781 53.0274 28.9403L53.035 32.1923Z" fill="white"/>
</g>
<defs>
<clipPath id="clip0_105_186">
<rect width="60" height="61" fill="white"/>
</clipPath>
</defs>
</svg>
