<svg width="60" height="60" viewBox="0 0 60 60" fill="none" xmlns="http://www.w3.org/2000/svg">
<path fill-rule="evenodd" clip-rule="evenodd" d="M0 16.0465C0 7.18427 7.18427 0 16.0465 0H43.9535C52.8157 0 60 7.18427 60 16.0465V43.9535C60 52.8157 52.8157 60 43.9535 60H16.0465C7.18427 60 0 52.8157 0 43.9535V16.0465ZM17.3372 43.9534C17.3372 44.7819 18.0088 45.4534 18.8372 45.4534C19.6656 45.4534 20.3372 44.7819 20.3372 43.9534V35.5814C20.3372 34.7529 19.6656 34.0814 18.8372 34.0814C18.0088 34.0814 17.3372 34.7529 17.3372 35.5814V43.9534ZM30 45.4534C29.1716 45.4534 28.5 44.7819 28.5 43.9534L28.5 16.0465C28.5 15.218 29.1716 14.5465 30 14.5465C30.8284 14.5465 31.5 15.218 31.5 16.0465L31.5 43.9534C31.5 44.7819 30.8284 45.4534 30 45.4534ZM39.6628 43.9534C39.6628 44.7819 40.3344 45.4534 41.1628 45.4534C41.9912 45.4534 42.6628 44.7819 42.6628 43.9534V24.4186C42.6628 23.5901 41.9912 22.9186 41.1628 22.9186C40.3344 22.9186 39.6628 23.5901 39.6628 24.4186V43.9534Z" fill="white"/>
</svg>
