<svg xmlns="http://www.w3.org/2000/svg" viewBox="0 0 36 36"><defs><style>.cls-1{fill:#fff;}.cls-2{fill:#6100d1;}.cls-3{fill:#81f5d6;}.cls-4{fill:#bc7cf2;}</style></defs><g id="Capa_2" data-name="Capa 2"><g id="Capa_1-2" data-name="Capa 1"><path class="cls-1" d="M32.36,1C31.2.33,30.05,0,26.87,0H9.13C6,0,4.8.33,3.64,1A6.58,6.58,0,0,0,1,3.64C.33,4.8,0,6,0,9.13V26.87C0,30,.33,31.2,1,32.36a6.58,6.58,0,0,0,2.69,2.69c1.16.62,2.31,1,5.49,1H26.87c3.18,0,4.33-.33,5.49-1a6.46,6.46,0,0,0,2.69-2.69c.62-1.16,1-2.31,1-5.49V9.13c0-3.18-.33-4.33-1-5.49A6.58,6.58,0,0,0,32.36,1Z"/><path class="cls-2" d="M14.51,20.54a5.83,5.83,0,0,1-1.2-7.93,6.09,6.09,0,0,1,8.19-1.83l1.28.82.51-.77A2,2,0,0,0,22.49,8c-3-1.25-5-2.11-7.87-3.21a2,2,0,0,0-2.27.71c-.11.17-2.79,4.11-5.25,7.7a6,6,0,0,0,1.66,8.36c.73.5,1.85,1.22,2.84,1.87l1.62,1.07,1.57-2.33A1.29,1.29,0,0,0,14.51,20.54Z"/><path class="cls-3" d="M27.26,14.53c-.74-.49-1.86-1.2-2.84-1.85L22.77,11.6l-1.55,2.33a1.25,1.25,0,0,0,.27,1.58,5.94,5.94,0,0,1,1.22,8,6.13,6.13,0,0,1-8.2,1.83l-1.3-.85-.5.75a1.94,1.94,0,0,0,.8,2.85c3,1.23,5,2.09,7.86,3.18a2,2,0,0,0,2.27-.71c.12-.17,2.8-4.1,5.26-7.68A5.91,5.91,0,0,0,27.26,14.53Z"/><path class="cls-4" d="M22.71,23.48a5.93,5.93,0,0,0-1.22-8,1.25,1.25,0,0,1-.27-1.58l1.55-2.33-1.27-.83a6.1,6.1,0,0,0-8.19,1.84,5.83,5.83,0,0,0,1.2,7.93,1.28,1.28,0,0,1,.27,1.6l-1.57,2.32,1.3.85A6.13,6.13,0,0,0,22.71,23.48Z"/></g></g></svg>