<svg width="112" height="48" viewBox="0 0 112 48" fill="none" xmlns="http://www.w3.org/2000/svg">
    <g filter="url(#filter0_d_1002_4616)">
        <path d="M38.3575 6.951C37.197 6.33 36.0473 6 32.8737 6H15.1282C11.9555 6 10.8031 6.33 9.64258 6.951C8.49559 7.55762 7.55774 8.49539 6.95107 9.6423C6.33123 10.8027 6 11.955 6 15.1284V32.8716C6 36.045 6.33003 37.1973 6.95107 38.3577C7.55774 39.5046 8.49559 40.4424 9.64258 41.049C10.8031 41.6688 11.9528 42 15.1291 42H32.8737C36.0473 42 37.1997 41.67 38.3602 41.049C39.5072 40.4424 40.4451 39.5046 41.0517 38.3577C41.6716 37.1973 42.0028 36.0477 42.0028 32.8716V15.1284C42.0028 11.955 41.6728 10.8027 41.0517 9.6423C40.4433 8.4958 39.5047 7.55827 38.3575 6.951Z" fill="white"/>
    </g>
    <path d="M20.5126 26.5437C18.3687 24.9357 17.3309 21.3966 19.3098 18.6099C21.824 15.0699 25.7924 15.6615 27.5038 16.7769C27.5305 16.7955 28.0972 17.1609 28.7756 17.6034L29.2922 16.83C30.0312 15.7413 29.4512 14.3613 28.4947 13.9665C25.4792 12.7239 23.5063 11.8602 20.6212 10.761C19.9378 10.4721 18.8541 10.731 18.3537 11.4708C18.2396 11.6403 15.5586 15.5808 13.1032 19.1742C11.2038 21.9531 11.9617 25.6695 14.7564 27.5346C15.4929 28.0272 16.6135 28.7451 17.6018 29.4021C18.0626 29.7066 18.6747 30.1092 19.2219 30.4668L20.7928 28.1436C21.0716 27.6987 21.0002 26.9067 20.5126 26.5437Z" fill="#6100D1"/>
    <path d="M33.2576 20.5305C32.5213 20.0433 31.4031 19.3278 30.4152 18.6762C29.9489 18.3663 29.3237 17.9583 28.7725 17.6007L27.2229 19.9266C26.9289 20.3028 27.0003 21.1506 27.4929 21.5082C29.5832 23.0232 30.6642 26.6682 28.7065 29.4789C26.2796 32.9625 22.2212 32.4537 20.5123 31.3089C20.4859 31.2903 19.9056 30.9114 19.2144 30.4611L18.7109 31.2081C17.9717 32.2917 18.5492 33.6663 19.5057 34.0581C22.5179 35.2926 24.4888 36.1509 27.3738 37.2399C28.0546 37.5258 29.141 37.2663 29.6417 36.5298C29.7554 36.3603 32.4418 32.4342 34.9002 28.8528C36.8024 26.0829 36.0499 22.3821 33.2576 20.5305Z" fill="#81F5D6"/>
    <path d="M28.7062 29.4762C30.6639 26.6655 29.5856 23.0205 27.4926 21.5055C27 21.1503 26.9286 20.3028 27.2226 19.9266L28.7722 17.6007C28.0942 17.1609 27.5298 16.7928 27.5007 16.7742C25.7906 15.6618 21.8207 15.0657 19.3068 18.6075C17.3266 21.3975 18.3662 24.9333 20.5096 26.541C20.9941 26.9067 21.0685 27.696 20.7823 28.1358L19.2114 30.459C19.9014 30.909 20.4802 31.2882 20.5096 31.3068C22.2182 32.4537 26.2766 32.9622 28.7062 29.4762Z" fill="#BC7CF2"/>
    <path d="M51.6426 28.116C51.417 27.9129 51.3042 27.666 51.3042 27.3486C51.3042 26.7846 51.7779 26.3106 52.3648 26.3106C52.6132 26.3106 52.8613 26.4006 53.1094 26.6265C53.8091 27.2811 54.6443 27.7776 55.7049 27.7776C56.6755 27.7776 57.488 27.3714 57.488 26.5362C57.488 25.8141 56.8333 25.5207 55.9305 25.1598L54.8022 24.6858C53.0194 23.9412 51.9135 23.1288 51.9135 21.4587C51.9135 19.4052 53.6288 18.2544 55.8177 18.2544C57.2395 18.2544 58.4807 18.7734 59.3385 19.6083C59.5866 19.8339 59.6985 20.1048 59.6985 20.3982C59.6985 20.9622 59.2485 21.4137 58.7057 21.4137C58.4573 21.4137 58.2557 21.3009 57.9608 21.075C57.3743 20.625 56.6068 20.3079 55.7706 20.3079C54.8904 20.3079 54.2585 20.6463 54.2585 21.3684C54.2585 21.9777 54.7086 22.2711 55.7253 22.6773L56.7862 23.1063C58.7964 23.9412 59.8104 24.8211 59.8104 26.4459C59.8104 28.6803 57.9146 29.8311 55.7028 29.8311C53.9897 29.8311 52.5904 29.1315 51.6426 28.116Z" fill="#8A00E6"/>
    <path d="M73.8726 24.054C73.8726 27.3939 71.5708 29.8311 68.4563 29.8311C66.8763 29.8311 65.546 29.2218 64.7099 28.2063V28.6125C64.7099 29.3346 64.2133 29.8311 63.559 29.8311C62.8593 29.8311 62.3628 29.3121 62.3628 28.6125V13.6281C62.3628 12.9285 62.8818 12.4095 63.559 12.4095C64.2361 12.4095 64.7324 12.906 64.7324 13.6281V19.8792C65.5673 18.8637 66.8763 18.2544 68.4338 18.2544C71.5702 18.2544 73.8726 20.7141 73.8726 24.054ZM71.4352 24.0315C71.4352 21.9552 70.0134 20.4207 68.05 20.4207C66.0414 20.4207 64.7099 21.8874 64.7099 24.054C64.7099 26.1978 66.0639 27.6648 68.05 27.6648C70.0128 27.6648 71.4346 26.13 71.4346 24.0315H71.4352Z" fill="#8A00E6"/>
    <path d="M87.7519 24.1218C87.7519 27.3486 85.4048 29.8086 82.3356 29.8086C80.3947 29.8086 78.747 28.8606 77.9345 27.4617V33.3063C77.9345 33.645 77.6864 33.8931 77.3705 33.8931C77.0546 33.8931 76.8062 33.6231 76.8062 33.3063V19.0215C76.8062 18.6831 77.0546 18.4347 77.3705 18.4347C77.6864 18.4347 77.9345 18.6831 77.9345 19.0215V20.8044C78.747 19.4052 80.3947 18.4575 82.3356 18.4575C85.3823 18.4575 87.7519 20.9172 87.7519 24.1218ZM86.5785 24.1443C86.5785 21.4812 84.7052 19.518 82.2228 19.518C79.6498 19.518 77.9345 21.3684 77.9345 24.1218C77.9345 26.8974 79.6498 28.7478 82.2228 28.7478C84.7277 28.7478 86.5785 26.7846 86.5785 24.1443Z" fill="#8A00E6"/>
    <path d="M98.6749 22.7451V29.2443C98.6757 29.3186 98.6616 29.3923 98.6335 29.4611C98.6054 29.5299 98.5639 29.5924 98.5114 29.6449C98.4589 29.6975 98.3964 29.739 98.3276 29.7671C98.2589 29.7952 98.1852 29.8093 98.1109 29.8086C97.7949 29.8086 97.524 29.5602 97.524 29.2443V27.9579C96.734 29.109 95.3572 29.8086 93.6873 29.8086C91.453 29.8086 89.9409 28.6125 89.9409 26.8521C89.9409 25.0695 91.4305 23.9421 93.7323 23.9421H97.524V22.6998C97.524 20.6916 96.4181 19.518 94.5238 19.518C93.3729 19.518 92.4023 19.992 91.5235 20.985C91.3654 21.1428 91.2301 21.2106 91.0495 21.2106C90.7795 21.2106 90.5305 20.985 90.5305 20.7366C90.5305 20.5788 90.598 20.4207 90.7786 20.2176C91.7717 19.044 93.0807 18.4575 94.5928 18.4575C97.1403 18.4575 98.6749 20.0595 98.6749 22.7451ZM97.524 25.5207V24.9114H93.8451C92.0849 24.9114 91.1149 25.611 91.1149 26.8296C91.1149 28.0257 92.1755 28.8156 93.8004 28.8156C95.8766 28.8156 97.524 27.3486 97.524 25.5207Z" fill="#8A00E6"/>
    <path d="M111.584 19.0216C111.584 19.0894 111.561 19.1572 111.516 19.27L106.235 31.1401C105.4 32.9905 104.182 33.8701 102.534 33.8701C102.218 33.8701 101.88 33.8476 101.586 33.7801C101.316 33.7123 101.135 33.5101 101.135 33.2611C101.136 33.1239 101.192 32.9928 101.289 32.8958C101.386 32.7988 101.517 32.7436 101.654 32.7421C101.834 32.7421 102.173 32.8321 102.444 32.8321C103.708 32.8321 104.565 32.2 105.174 30.8461L105.806 29.3791L101.338 19.2925C101.293 19.1797 101.27 19.1125 101.27 19.0225C101.27 18.9482 101.284 18.8745 101.312 18.8057C101.34 18.737 101.381 18.6745 101.434 18.622C101.486 18.5694 101.549 18.5279 101.618 18.4998C101.686 18.4718 101.76 18.4577 101.834 18.4585C101.953 18.4586 102.068 18.4953 102.165 18.5636C102.262 18.6319 102.335 18.7285 102.375 18.8401L106.438 28.0024L110.456 18.8401C110.546 18.592 110.772 18.4567 111.02 18.4567C111.169 18.459 111.311 18.5193 111.417 18.6247C111.522 18.7302 111.582 18.8725 111.584 19.0216Z" fill="#8A00E6"/>
    <defs>
        <filter id="filter0_d_1002_4616" x="0" y="0" width="48.0029" height="48" filterUnits="userSpaceOnUse" color-interpolation-filters="sRGB">
            <feFlood flood-opacity="0" result="BackgroundImageFix"/>
            <feColorMatrix in="SourceAlpha" type="matrix" values="0 0 0 0 0 0 0 0 0 0 0 0 0 0 0 0 0 0 127 0" result="hardAlpha"/>
            <feOffset/>
            <feGaussianBlur stdDeviation="3"/>
            <feColorMatrix type="matrix" values="0 0 0 0 0.345098 0 0 0 0 0.345098 0 0 0 0 0.345098 0 0 0 0.4 0"/>
            <feBlend mode="normal" in2="BackgroundImageFix" result="effect1_dropShadow_1002_4616"/>
            <feBlend mode="normal" in="SourceGraphic" in2="effect1_dropShadow_1002_4616" result="shape"/>
        </filter>
    </defs>
</svg>
