<svg xmlns="http://www.w3.org/2000/svg" viewBox="0 0 105.58 36"><defs><style>.cls-1{fill:#fff;}.cls-2{fill:#6100d1;}.cls-3{fill:#81f5d6;}.cls-4{fill:#bc7cf2;}</style></defs><g id="Capa_2" data-name="Capa 2"><g id="Capa_1-2" data-name="Capa 1"><path class="cls-1" d="M32.36,1C31.2.33,30.05,0,26.87,0H9.13C6,0,4.8.33,3.64,1A6.58,6.58,0,0,0,1,3.64C.33,4.8,0,6,0,9.13V26.87C0,30,.33,31.2,1,32.36a6.58,6.58,0,0,0,2.69,2.69c1.16.62,2.31,1,5.49,1H26.87c3.18,0,4.33-.33,5.49-1a6.46,6.46,0,0,0,2.69-2.69c.62-1.16,1-2.31,1-5.49V9.13c0-3.18-.33-4.33-1-5.49A6.58,6.58,0,0,0,32.36,1Z"/><path class="cls-2" d="M14.51,20.54a5.83,5.83,0,0,1-1.2-7.93,6.09,6.09,0,0,1,8.19-1.83l1.28.82.51-.77A2,2,0,0,0,22.49,8c-3-1.25-5-2.11-7.87-3.21a2,2,0,0,0-2.27.71c-.11.17-2.79,4.11-5.25,7.7a6,6,0,0,0,1.66,8.36c.73.5,1.85,1.22,2.84,1.87l1.62,1.07,1.57-2.33A1.29,1.29,0,0,0,14.51,20.54Z"/><path class="cls-3" d="M27.26,14.53c-.74-.49-1.86-1.2-2.84-1.85L22.77,11.6l-1.55,2.33a1.25,1.25,0,0,0,.27,1.58,5.94,5.94,0,0,1,1.22,8,6.13,6.13,0,0,1-8.2,1.83l-1.3-.85-.5.75a1.94,1.94,0,0,0,.8,2.85c3,1.23,5,2.09,7.86,3.18a2,2,0,0,0,2.27-.71c.12-.17,2.8-4.1,5.26-7.68A5.91,5.91,0,0,0,27.26,14.53Z"/><path class="cls-4" d="M22.71,23.48a5.93,5.93,0,0,0-1.22-8,1.25,1.25,0,0,1-.27-1.58l1.55-2.33-1.27-.83a6.1,6.1,0,0,0-8.19,1.84,5.83,5.83,0,0,0,1.2,7.93,1.28,1.28,0,0,1,.27,1.6l-1.57,2.32,1.3.85A6.13,6.13,0,0,0,22.71,23.48Z"/><path class="cls-1" d="M45.64,22.12a1,1,0,0,1-.34-.77,1.06,1.06,0,0,1,1.06-1,1.08,1.08,0,0,1,.75.32,3.75,3.75,0,0,0,2.59,1.15c1,0,1.79-.41,1.79-1.24s-.66-1-1.56-1.38l-1.13-.47c-1.78-.75-2.89-1.56-2.89-3.23,0-2.05,1.72-3.21,3.91-3.21a5,5,0,0,1,3.52,1.36,1,1,0,0,1-.63,1.8,1.25,1.25,0,0,1-.75-.33,3.57,3.57,0,0,0-2.19-.77c-.88,0-1.51.34-1.51,1.06s.45.9,1.47,1.31l1.06.43c2,.83,3,1.71,3,3.34,0,2.23-1.9,3.38-4.11,3.38A5.49,5.49,0,0,1,45.64,22.12Z"/><path class="cls-1" d="M67.87,18.05a5.44,5.44,0,0,1-5.41,5.78,4.77,4.77,0,0,1-3.75-1.62v.4a1.15,1.15,0,0,1-1.15,1.22,1.17,1.17,0,0,1-1.2-1.22v-15a1.18,1.18,0,0,1,1.2-1.22,1.15,1.15,0,0,1,1.17,1.22v6.25a4.69,4.69,0,0,1,3.7-1.63A5.46,5.46,0,0,1,67.87,18.05Zm-2.43,0a3.4,3.4,0,0,0-3.39-3.61,3.31,3.31,0,0,0-3.34,3.63,3.31,3.31,0,0,0,3.34,3.61A3.4,3.4,0,0,0,65.43,18Z"/><path class="cls-1" d="M81.75,18.12a5.46,5.46,0,0,1-5.41,5.69,5,5,0,0,1-4.41-2.35v5.85a.55.55,0,0,1-.56.58.57.57,0,0,1-.56-.58V13a.56.56,0,1,1,1.12,0V14.8a5,5,0,0,1,4.41-2.34A5.46,5.46,0,0,1,81.75,18.12Zm-1.17,0a4.38,4.38,0,0,0-4.36-4.62c-2.57,0-4.29,1.85-4.29,4.6s1.72,4.63,4.29,4.63A4.37,4.37,0,0,0,80.58,18.14Z"/><path class="cls-1" d="M92.67,16.75v6.49a.41.41,0,0,1,0,.22.44.44,0,0,1-.12.18.46.46,0,0,1-.18.13.54.54,0,0,1-.22,0,.58.58,0,0,1-.59-.57V22a4.51,4.51,0,0,1-3.83,1.85c-2.24,0-3.75-1.2-3.75-3s1.49-2.91,3.79-2.91h3.79V16.7c0-2-1.1-3.18-3-3.18a3.84,3.84,0,0,0-3,1.47.63.63,0,0,1-.47.22.52.52,0,0,1-.52-.47.78.78,0,0,1,.25-.52,4.8,4.8,0,0,1,3.81-1.76C91.14,12.46,92.67,14.06,92.67,16.75Zm-1.15,2.77v-.61H87.85c-1.77,0-2.74.7-2.74,1.92s1.07,2,2.69,2A3.51,3.51,0,0,0,91.52,19.52Z"/><path class="cls-1" d="M105.58,13a.74.74,0,0,1-.06.25l-5.28,11.87c-.84,1.85-2.06,2.73-3.71,2.73a4.16,4.16,0,0,1-.94-.09.55.55,0,0,1-.45-.52.48.48,0,0,1,.15-.36.52.52,0,0,1,.36-.16c.18,0,.52.09.79.09a2.82,2.82,0,0,0,2.73-2l.64-1.47L95.34,13.29a.6.6,0,0,1-.07-.27.49.49,0,0,1,0-.21.62.62,0,0,1,.12-.19.76.76,0,0,1,.19-.12.52.52,0,0,1,.21,0,.67.67,0,0,1,.34.1.74.74,0,0,1,.21.28L100.44,22l4-9.16a.57.57,0,0,1,.56-.38.55.55,0,0,1,.56.56Z"/></g></g></svg>