<svg width="693" height="438" viewBox="0 0 693 438" fill="none" xmlns="http://www.w3.org/2000/svg">
<g clip-path="url(#clip0_1_132)">
<path d="M655.941 1.23376H37.0589C17.2741 1.23376 1.23535 17.2531 1.23535 37.014V400.986C1.23535 420.747 17.2741 436.766 37.0589 436.766H655.941C675.726 436.766 691.765 420.747 691.765 400.986V37.014C691.765 17.2531 675.726 1.23376 655.941 1.23376Z" fill="#212121" stroke="url(#paint0_linear_1_132)" stroke-width="2"/>
<g opacity="0.7">
<path d="M125.012 138.075H77.7125C73.7828 138.075 70.5972 141.257 70.5972 145.182V177.433C70.5972 181.358 73.7828 184.54 77.7125 184.54H125.012C128.942 184.54 132.127 181.358 132.127 177.433V145.182C132.127 141.257 128.942 138.075 125.012 138.075Z" fill="white" fill-opacity="0.26" stroke="white" stroke-width="1.4"/>
<path d="M70.8196 152.079H87.5702C88.6153 152.079 89.6176 152.493 90.3566 153.231C91.0956 153.969 91.5108 154.971 91.5108 156.014V163.639M91.5108 184.355V175.2M91.5108 175.2V163.639M91.5108 175.2H70.8196M91.5108 163.639H70.8196" stroke="white" stroke-width="1.4"/>
<path d="M131.905 152.079H112.14M112.14 152.079V163.639M112.14 152.079V138.297M112.14 184.355V175.2M112.14 175.2V163.639M112.14 175.2H131.905M112.14 163.639H131.905" stroke="white" stroke-width="1.4"/>
</g>
<path d="M545.864 370.696H530.843L530.719 371.412C542.455 374.249 550.225 381.109 553.449 389.351L550.175 373.583C549.607 371.412 547.964 370.758 545.926 370.684" fill="white"/>
<path d="M90.6212 42.4922C88.8794 41.4805 87.1376 40.9869 82.3447 40.9869H55.5882C50.8694 40.9869 49.0535 41.4805 47.2994 42.4922C45.6145 43.4069 44.2324 44.7916 43.3218 46.4774C42.3088 48.217 41.8147 50.0307 41.8147 54.7562V81.505C41.8147 86.2181 42.3088 88.0318 43.3218 89.7838C44.2477 91.5022 45.656 92.913 47.3735 93.8431C49.1276 94.7684 50.8694 95.3483 55.6623 95.3483H82.3447C87.1376 95.3483 88.8794 94.8548 90.6212 93.8431C92.3554 92.9313 93.7724 91.516 94.6853 89.7838C95.6241 88.0318 96.1923 86.3045 96.1923 81.505V54.7562C96.1923 49.9567 95.6982 48.217 94.6853 46.4774C93.7515 44.7794 92.3381 43.3934 90.6212 42.4922Z" fill="white"/>
<path d="M63.6794 71.9554C61.9034 70.5722 60.7263 68.5611 60.3908 66.3368C60.0552 64.1125 60.5868 61.8444 61.8758 59.9999C63.1879 58.0457 65.2012 56.6694 67.5 56.1551C69.7987 55.6408 72.2075 56.0278 74.2288 57.2361L76.1559 58.4699L76.9217 57.2978C77.1413 56.9441 77.2844 56.5484 77.3418 56.1362C77.3992 55.724 77.3698 55.3044 77.2553 54.9042C77.1413 54.5039 76.9481 54.1305 76.687 53.8062C76.4215 53.4882 76.0936 53.2279 75.7235 53.0412C71.19 51.1535 68.1759 49.858 63.84 48.1924C63.2264 47.9891 62.5635 47.9891 61.95 48.1924C61.3321 48.3797 60.7936 48.7657 60.4182 49.2904C60.2453 49.5495 56.2059 55.4595 52.4876 60.9005C51.8171 61.8892 51.3489 63.0007 51.1101 64.1708C50.8714 65.3409 50.8667 66.5467 51.0963 67.7187C51.3259 68.8906 51.7853 70.0057 52.4481 70.9996C53.1109 71.9935 53.964 72.8467 54.9582 73.51C56.0576 74.2626 57.75 75.3484 59.2447 76.3231L61.7153 77.9393L64.087 74.423C64.3104 74.0304 64.3932 73.5734 64.3217 73.1275C64.2526 72.6734 64.0251 72.2583 63.6794 71.9554Z" fill="#6100D1"/>
<path d="M82.9254 62.924C81.8136 62.1837 80.1213 61.1103 78.6389 60.1356L76.1683 58.507L73.8213 62.011C73.6095 62.3853 73.5311 62.8202 73.5989 63.2448C73.6725 63.6771 73.8954 64.07 74.2289 64.3552C76.0047 65.7646 77.1826 67.7915 77.5271 70.0307C77.8908 72.2944 77.3641 74.611 76.0571 76.4958C74.7371 78.4404 72.7243 79.8089 70.429 80.3224C68.1336 80.836 65.7286 80.4558 63.7042 79.2595L61.7524 78.0257L60.9989 79.1608C60.7706 79.4691 60.6106 79.8224 60.5295 80.1972C60.4329 80.6028 60.4329 81.0254 60.5295 81.431C60.6365 81.8428 60.8397 82.2233 61.1224 82.5414C61.3923 82.8702 61.7348 83.132 62.123 83.3064C66.6566 85.1571 69.6707 86.4526 73.9942 88.1059C74.6078 88.3092 75.2706 88.3092 75.8842 88.1059C76.4981 87.9106 77.0343 87.5262 77.416 87.0078C77.6013 86.7487 81.6407 80.8388 85.3589 75.4224C86.0435 74.4391 86.5231 73.3284 86.7693 72.1563C87.0155 70.9842 87.0231 69.7746 86.7919 68.5995C86.5559 67.4448 86.0926 66.3485 85.4288 65.3742C84.7651 64.3999 83.9141 63.567 82.9254 62.924Z" fill="#81F5D6"/>
<path d="M76.0571 76.3971C77.343 74.5288 77.8684 72.2415 77.5265 70.0002C77.1846 67.7588 76.0011 65.7316 74.2165 64.3305C73.8829 64.0402 73.6603 63.6435 73.5865 63.2078C73.5167 62.7832 73.5952 62.3476 73.8088 61.974L76.1559 58.4576L74.2412 57.2238C72.2176 56.0197 69.8088 55.6364 67.5108 56.1528C65.2127 56.6692 63.2004 58.0461 61.8882 59.9999C60.6014 61.8473 60.0712 64.1166 60.4066 66.3421C60.742 68.5676 61.9175 70.5805 63.6918 71.9678C64.0332 72.2534 64.2611 72.6517 64.3341 73.0905C64.3953 73.5164 64.3127 73.9505 64.0994 74.3243L61.7647 77.8283L63.7165 79.0621C65.7366 80.2573 68.1358 80.6418 70.4289 80.138C72.722 79.6341 74.738 78.2794 76.0694 76.3478L76.0571 76.3971Z" fill="#BC7CF2"/>
<path d="M110.67 74.3366C110.505 74.1946 110.374 74.0175 110.287 73.8184C110.154 73.5312 110.118 73.2084 110.185 72.8989C110.252 72.5894 110.418 72.3102 110.658 72.1034C110.958 71.8283 111.35 71.6744 111.757 71.6716C112.183 71.6857 112.588 71.8572 112.894 72.1528C113.915 73.2224 115.318 73.8473 116.797 73.8924C118.304 73.8924 119.502 73.2755 119.502 72.0171C119.502 70.7586 118.502 70.5118 117.143 69.9319L115.438 69.2287C112.758 68.0936 111.078 66.8721 111.078 64.2935C111.078 61.2089 113.672 59.4569 116.982 59.4569C118.961 59.4401 120.868 60.1974 122.294 61.5667C122.551 61.7561 122.738 62.0251 122.825 62.3317C122.924 62.6364 122.924 62.9647 122.825 63.2694C122.724 63.5746 122.525 63.8385 122.26 64.0211C121.995 64.2036 121.677 64.2949 121.355 64.2811C120.933 64.2452 120.533 64.0718 120.219 63.7876C119.284 63.0368 118.12 62.6276 116.921 62.6278C115.586 62.6278 114.635 63.1337 114.635 64.2194C114.635 65.3052 115.315 65.5766 116.859 66.1935L118.452 66.8474C121.479 68.0812 122.986 69.4261 122.986 71.8813C122.986 75.2496 120.12 76.9769 116.809 76.9769C115.662 76.988 114.526 76.7568 113.474 76.2984C112.414 75.8439 111.46 75.1761 110.67 74.3366V74.3366Z" fill="white"/>
<path d="M144.22 68.2046C144.295 69.3283 144.138 70.4553 143.76 71.5162C143.382 72.5771 142.79 73.5495 142.022 74.3736C141.257 75.1891 140.333 75.8396 139.307 76.2852C138.281 76.7308 137.174 76.962 136.055 76.9646C134.987 77.0014 133.925 76.7989 132.946 76.3718C131.967 75.9448 131.096 75.3042 130.398 74.497V75.1015C130.408 75.34 130.374 75.5784 130.299 75.8048C130.214 76.0239 130.088 76.2249 129.928 76.397C129.764 76.5706 129.567 76.7091 129.348 76.8042C129.128 76.8941 128.893 76.9402 128.656 76.9399C128.415 76.9482 128.175 76.9062 127.952 76.8165C127.727 76.7305 127.524 76.5957 127.359 76.4217C127.185 76.2502 127.05 76.0438 126.963 75.8162C126.876 75.5885 126.838 75.3449 126.852 75.1015V52.4612C126.837 52.2203 126.879 51.9793 126.976 51.758C127.057 51.5306 127.188 51.3241 127.359 51.1534C127.529 50.9822 127.73 50.8441 127.952 50.7463C128.175 50.6566 128.415 50.6146 128.656 50.6229C128.897 50.6135 129.137 50.6555 129.36 50.7463C129.581 50.8441 129.782 50.9822 129.953 51.1534C130.113 51.3299 130.239 51.535 130.323 51.758C130.412 51.9812 130.446 52.2223 130.422 52.4612V61.8875C131.098 61.0917 131.942 60.4554 132.893 60.0245C133.855 59.5957 134.903 59.3931 135.956 59.4322C137.099 59.4184 138.232 59.6428 139.282 60.0911C140.333 60.5393 141.279 61.2016 142.059 62.0356C142.825 62.8637 143.417 63.837 143.8 64.898C144.162 65.9607 144.305 67.0854 144.22 68.2046V68.2046ZM140.515 68.2046C140.564 67.5045 140.462 66.8021 140.218 66.1441C139.982 65.4869 139.612 64.886 139.131 64.3798C138.665 63.8492 138.087 63.4279 137.439 63.146C136.796 62.8653 136.102 62.7224 135.4 62.7265C134.699 62.7124 134.004 62.8514 133.362 63.1336C132.709 63.4122 132.126 63.8338 131.658 64.3674C131.179 64.8852 130.816 65.4995 130.595 66.1688C130.372 66.8313 130.292 67.5336 130.36 68.2292C130.299 68.9257 130.383 69.6274 130.608 70.2897C130.83 70.9546 131.193 71.5645 131.67 72.0787C132.143 72.6014 132.719 73.0214 133.362 73.3125C134.007 73.5832 134.701 73.7216 135.4 73.7197C136.111 73.708 136.811 73.5571 137.463 73.2755C138.11 72.9843 138.69 72.5645 139.168 72.0417C139.646 71.5213 140.012 70.9081 140.243 70.2403C140.476 69.5714 140.564 68.8608 140.502 68.1552L140.515 68.2046Z" fill="white"/>
<path d="M165.171 68.3033C165.218 69.4071 165.042 70.509 164.654 71.5435C164.266 72.5779 163.673 73.5236 162.911 74.3243C162.151 75.1278 161.236 75.7694 160.221 76.2104C159.206 76.6514 158.113 76.8828 157.006 76.8906C155.683 76.9305 154.373 76.6248 153.206 76.0038C152.038 75.3827 151.053 74.4678 150.348 73.3496V82.1713C150.372 82.281 150.372 82.3947 150.348 82.5044C150.307 82.6111 150.244 82.7078 150.162 82.7882C150.089 82.8715 149.995 82.9352 149.891 82.9732C149.786 83.0212 149.672 83.0464 149.557 83.0473C149.444 83.0344 149.332 83.0096 149.224 82.9732C149.121 82.9261 149.028 82.859 148.952 82.7758C148.873 82.6933 148.81 82.5971 148.766 82.4921C148.748 82.3859 148.748 82.2774 148.766 82.1713V60.592C148.769 60.3665 148.857 60.1504 149.014 59.9875C149.175 59.8293 149.392 59.7407 149.619 59.7407C149.73 59.7407 149.84 59.7628 149.943 59.8057C150.046 59.8487 150.139 59.9116 150.217 59.9908C150.295 60.07 150.357 60.164 150.398 60.2672C150.44 60.3704 150.46 60.4808 150.459 60.592V63.3064C151.123 62.2052 152.059 61.292 153.176 60.6537C154.344 60.0273 155.657 59.7248 156.981 59.7777C158.082 59.7819 159.17 60.0085 160.181 60.444C161.193 60.8814 162.107 61.5174 162.869 62.3143C163.631 63.1111 164.225 64.0527 164.615 65.0831C165.016 66.1082 165.205 67.2035 165.171 68.3033V68.3033ZM163.405 68.3033C163.453 67.4096 163.319 66.5154 163.009 65.6753C162.705 64.8345 162.23 64.0658 161.614 63.4175C160.996 62.7642 160.252 62.2436 159.427 61.8875C158.605 61.5285 157.718 61.3436 156.821 61.3447C152.942 61.3447 150.348 64.1331 150.348 68.2786C150.348 72.4242 152.942 75.262 156.882 75.262C157.779 75.2619 158.667 75.0771 159.489 74.7191C160.308 74.3688 161.047 73.8568 161.663 73.2139C162.272 72.5597 162.746 71.7926 163.059 70.956C163.368 70.1202 163.502 69.23 163.454 68.3403L163.405 68.3033Z" fill="white"/>
<path d="M181.65 66.2428V76.0269C181.687 76.1349 181.687 76.252 181.65 76.36C181.615 76.463 181.556 76.5561 181.477 76.6315C181.404 76.7182 181.31 76.7859 181.205 76.8289C181.095 76.8538 180.981 76.8538 180.872 76.8289C180.758 76.8287 180.645 76.8078 180.538 76.7672C180.426 76.7296 180.325 76.6662 180.242 76.5821C180.159 76.5 180.092 76.4039 180.044 76.2983C180.003 76.192 179.982 76.0791 179.982 75.9652V74.1639C179.317 75.0673 178.439 75.794 177.427 76.2801C176.415 76.7663 175.299 76.997 174.176 76.9522C170.792 76.9522 168.506 75.1386 168.506 72.4242C168.506 69.7098 170.767 68.0319 174.238 68.0319H179.958V66.1688C179.958 63.146 178.29 61.3693 175.424 61.3693C174.567 61.3865 173.725 61.5885 172.953 61.9615C172.17 62.3443 171.486 62.9015 170.952 63.5902C170.862 63.6895 170.753 63.7693 170.631 63.8246C170.509 63.8876 170.373 63.9214 170.236 63.9233C170.038 63.9231 169.849 63.8482 169.705 63.7135C169.631 63.6503 169.572 63.5728 169.529 63.4859C169.487 63.399 169.462 63.3043 169.458 63.2077C169.464 63.06 169.501 62.9152 169.564 62.7817C169.628 62.6482 169.718 62.5288 169.828 62.4304C170.524 61.5817 171.404 60.902 172.401 60.4424C173.398 59.9829 174.487 59.7556 175.585 59.7777C179.34 59.7777 181.65 62.1836 181.65 66.2428ZM179.92 70.4254V69.5001H174.374C171.706 69.5001 170.248 70.5612 170.248 72.3995C170.248 74.2379 171.854 75.41 174.3 75.41C175 75.4581 175.702 75.3615 176.363 75.1262C177.024 74.8989 177.633 74.5424 178.154 74.0775C178.67 73.6122 179.09 73.0505 179.389 72.4242C179.694 71.7984 179.874 71.1197 179.92 70.4254V70.4254Z" fill="white"/>
<path d="M201.143 60.5921C201.133 60.7206 201.1 60.8461 201.044 60.9623L193.077 78.8647C191.841 81.6531 189.964 82.9856 187.481 82.9856C187.004 82.99 186.528 82.9445 186.06 82.8499C185.872 82.8131 185.702 82.7129 185.578 82.5661C185.457 82.4246 185.388 82.2463 185.381 82.0603C185.377 81.9581 185.399 81.8565 185.442 81.7642C185.499 81.6233 185.596 81.5023 185.721 81.4166C185.847 81.3309 185.995 81.2844 186.147 81.283C186.418 81.283 186.937 81.4187 187.382 81.4187C188.301 81.4215 189.196 81.1319 189.939 80.5921C190.677 80.048 191.216 79.2762 191.471 78.3959L192.447 76.1751L185.69 61.024C185.625 60.8979 185.591 60.7584 185.591 60.6168C185.566 60.5113 185.566 60.4015 185.591 60.296C185.632 60.1893 185.695 60.0926 185.776 60.0122C185.858 59.9363 185.955 59.8776 186.06 59.8395C186.162 59.8149 186.267 59.8149 186.369 59.8395C186.553 59.8371 186.733 59.8886 186.888 59.9876C187.024 60.1026 187.133 60.2457 187.209 60.407L193.385 74.164L199.414 60.3454C199.477 60.1738 199.594 60.0269 199.747 59.9259C199.897 59.8163 200.081 59.7638 200.266 59.7778C200.372 59.7531 200.482 59.7531 200.587 59.7778C200.691 59.8248 200.787 59.8872 200.871 59.9629C200.947 60.045 201.006 60.1415 201.044 60.2467C201.089 60.3474 201.11 60.4572 201.106 60.5674L201.143 60.5921Z" fill="white"/>
<path fill-rule="evenodd" clip-rule="evenodd" d="M149.236 169.117C149.021 169.395 148.705 169.577 148.356 169.622C148.008 169.667 147.655 169.572 147.377 169.358C147.098 169.144 146.916 168.828 146.871 168.479C146.826 168.131 146.921 167.779 147.136 167.501C147.781 166.657 148.278 165.71 148.606 164.7C149.256 162.569 149.256 160.292 148.606 158.161C148.276 157.155 147.77 156.215 147.111 155.385C146.905 155.107 146.813 154.76 146.854 154.416C146.895 154.071 147.067 153.756 147.333 153.534C147.607 153.318 147.956 153.218 148.303 153.257C148.651 153.297 148.968 153.472 149.186 153.744C150.013 154.812 150.668 156.003 151.126 157.273C151.561 158.609 151.802 160.001 151.842 161.406C151.896 162.788 151.678 164.167 151.2 165.465C150.717 166.767 150.056 167.996 149.236 169.117ZM155.289 171.733C157.205 168.644 158.211 165.079 158.191 161.446C158.171 157.812 157.127 154.258 155.178 151.19C155.082 151.035 155.018 150.863 154.989 150.682C154.961 150.502 154.969 150.319 155.012 150.142C155.056 149.965 155.135 149.798 155.244 149.652C155.353 149.506 155.49 149.383 155.647 149.29C155.956 149.122 156.318 149.077 156.659 149.164C157.001 149.251 157.297 149.463 157.488 149.759C159.7 153.259 160.893 157.304 160.934 161.443C160.961 165.582 159.808 169.643 157.611 173.152C157.426 173.461 157.126 173.685 156.777 173.775C156.428 173.865 156.058 173.814 155.746 173.633C155.44 173.435 155.223 173.128 155.138 172.774C155.053 172.421 155.107 172.048 155.289 171.733ZM166.159 145.256C169.103 150.082 170.675 155.618 170.708 161.269C170.74 166.921 169.232 172.474 166.345 177.334C166.255 177.496 166.135 177.639 165.991 177.755C165.846 177.871 165.68 177.957 165.502 178.008C165.325 178.06 165.138 178.076 164.954 178.055C164.77 178.035 164.592 177.979 164.43 177.89C164.268 177.801 164.125 177.68 164.009 177.536C163.893 177.392 163.807 177.226 163.755 177.048C163.704 176.871 163.688 176.685 163.708 176.501C163.728 176.317 163.785 176.139 163.874 175.977C166.416 171.509 167.753 166.459 167.753 161.32C167.772 156.165 166.375 151.104 163.714 146.687C163.528 146.369 163.476 145.991 163.569 145.635C163.662 145.279 163.891 144.974 164.208 144.787C164.365 144.683 164.541 144.612 164.727 144.58C164.912 144.547 165.103 144.553 165.286 144.597C165.469 144.641 165.641 144.722 165.791 144.835C165.942 144.949 166.067 145.092 166.159 145.256V145.256ZM174.708 140.789C178.327 146.993 180.253 154.036 180.292 161.216C180.331 168.396 178.482 175.46 174.93 181.702C174.844 181.866 174.726 182.011 174.583 182.129C174.44 182.247 174.274 182.334 174.097 182.387C173.919 182.439 173.732 182.456 173.548 182.435C173.364 182.414 173.186 182.356 173.024 182.265C172.863 182.174 172.721 182.052 172.608 181.905C172.495 181.759 172.412 181.591 172.365 181.412C172.318 181.232 172.308 181.046 172.335 180.862C172.362 180.679 172.425 180.503 172.521 180.345C175.893 174.548 177.634 167.949 177.561 161.246C177.495 154.548 175.686 147.983 172.311 142.196C172.118 141.883 172.057 141.507 172.141 141.149C172.226 140.792 172.449 140.483 172.762 140.289C173.075 140.096 173.452 140.035 173.81 140.12C174.168 140.204 174.477 140.427 174.671 140.74L174.708 140.789Z" fill="#C6C6C6"/>
<path d="M230.247 2.46755C230.247 2.46755 241.167 73.6827 326.439 106.243C353.805 116.744 380.436 129.064 406.152 143.121C419.041 150.137 431.649 157.499 443.977 165.206C453.65 171.227 464.285 181.246 475.662 184.602C479.409 185.552 483.261 186.02 487.126 185.996C528.508 187.23 571.41 178.42 603.058 155.04C622.078 140.845 636.832 121.709 645.713 99.7159C645.713 99.7159 657.177 50.2897 637.412 2.27014" stroke="url(#paint1_linear_1_132)"/>
<path d="M372.515 2.27014C378.358 16.5452 385.609 29.4138 398.345 41.3694C410.389 52.6586 432.699 58.6426 430.166 75.1879C428.931 83.0842 422.866 90.2279 415.541 96.2366C408.215 102.245 399.543 107.341 391.811 113.115C378.074 123.38 367.376 135.718 360.607 148.957C356.111 157.803 353.381 167.661 357.753 176.545C361.299 183.763 369.143 189.512 377.518 194.275C394.812 204.034 415.133 210.659 436.096 215.484C449.563 218.496 462.625 223.094 475.008 229.179C481.592 232.35 488.275 235.348 495.118 238.272C512.973 245.905 531.44 252.022 550.323 256.557C592.731 266.514 639.944 265.44 670.258 239.284C679.523 231.301 685.082 222.775 690.369 213.189" stroke="url(#paint2_linear_1_132)"/>
<path d="M571.941 405.033L577.796 370.696H587.16L581.304 405.033H571.941ZM615.114 371.449C612.423 370.472 609.578 369.983 606.714 370.005C597.474 370.005 590.964 374.657 590.903 381.319C590.903 386.254 595.56 388.993 599.105 390.634C602.65 392.275 603.972 393.398 603.96 394.891C603.96 397.198 601.044 398.247 598.352 398.247C595.316 398.33 592.302 397.714 589.544 396.446L588.309 395.903L586.987 403.577C590.325 404.804 593.856 405.422 597.413 405.403C607.295 405.403 613.632 400.801 613.706 393.682C613.706 389.783 611.236 386.822 605.85 384.367C602.589 382.787 600.575 381.726 600.6 380.122C600.624 378.518 602.292 377.174 605.961 377.174C608.361 377.119 610.747 377.565 612.965 378.481L613.805 378.876L615.04 371.473L615.114 371.449ZM639.178 370.696H631.976C629.74 370.696 628.06 371.301 627.035 373.534L613.2 404.848H623.082C623.082 404.848 624.663 400.69 625.022 399.777H636.843C637.115 401.011 637.955 404.835 637.955 404.835H646.713L639.178 370.696ZM627.714 392.769C628.493 390.795 631.42 383.182 631.42 383.182C631.42 383.182 632.186 381.196 632.656 379.9L633.298 382.861C633.298 382.861 635.089 391.054 635.46 392.732L627.714 392.769ZM563.986 370.696L554.844 394.027L553.869 389.289C552.164 383.824 546.864 377.901 540.935 374.928L549.298 404.848H559.18L573.88 370.696H563.936" fill="white"/>
<path d="M48.96 334V307.2L50.24 308.56H42.36V306H51.84V334H48.96ZM58.0131 334V331.96L69.6531 320.56C70.7198 319.52 71.5198 318.613 72.0531 317.84C72.5865 317.04 72.9465 316.293 73.1331 315.6C73.3198 314.907 73.4131 314.253 73.4131 313.64C73.4131 312.013 72.8531 310.733 71.7331 309.8C70.6398 308.867 69.0131 308.4 66.8531 308.4C65.1998 308.4 63.7331 308.653 62.4531 309.16C61.1998 309.667 60.1198 310.453 59.2131 311.52L57.1731 309.76C58.2665 308.48 59.6665 307.493 61.3731 306.8C63.0798 306.107 64.9865 305.76 67.0931 305.76C68.9865 305.76 70.6265 306.067 72.0131 306.68C73.3998 307.267 74.4665 308.133 75.2131 309.28C75.9865 310.427 76.3731 311.773 76.3731 313.32C76.3731 314.227 76.2398 315.12 75.9731 316C75.7331 316.88 75.2798 317.813 74.6131 318.8C73.9731 319.76 73.0265 320.853 71.7731 322.08L61.0931 332.56L60.2931 331.44H77.6531V334H58.0131ZM89.6275 334.24C87.6008 334.24 85.6808 333.92 83.8675 333.28C82.0808 332.613 80.6408 331.733 79.5475 330.64L80.9475 328.36C81.8542 329.293 83.0675 330.067 84.5875 330.68C86.1342 331.293 87.8142 331.6 89.6275 331.6C91.9475 331.6 93.7208 331.093 94.9475 330.08C96.2008 329.067 96.8275 327.707 96.8275 326C96.8275 324.293 96.2142 322.933 94.9875 321.92C93.7875 320.907 91.8808 320.4 89.2675 320.4H87.2675V318.28L95.9075 307.44L96.3075 308.56H80.7075V306H98.7075V308.04L90.0675 318.88L88.6675 317.96H89.7475C93.1075 317.96 95.6142 318.707 97.2675 320.2C98.9475 321.693 99.7875 323.613 99.7875 325.96C99.7875 327.533 99.4142 328.947 98.6675 330.2C97.9208 331.453 96.7875 332.44 95.2675 333.16C93.7742 333.88 91.8942 334.24 89.6275 334.24ZM103.366 326.64V324.56L118.206 306H121.406L106.686 324.56L105.126 324.08H127.646V326.64H103.366ZM119.166 334V326.64L119.246 324.08V317.6H122.046V334H119.166ZM149.6 334.24C147.6 334.24 145.693 333.92 143.88 333.28C142.066 332.613 140.626 331.733 139.56 330.64L140.96 328.36C141.84 329.293 143.04 330.067 144.56 330.68C146.106 331.293 147.773 331.6 149.56 331.6C151.933 331.6 153.733 331.08 154.96 330.04C156.213 328.973 156.84 327.587 156.84 325.88C156.84 324.68 156.546 323.653 155.96 322.8C155.4 321.92 154.44 321.24 153.08 320.76C151.72 320.28 149.853 320.04 147.48 320.04H141.52L142.96 306H158.28V308.56H144.12L145.6 307.16L144.36 318.92L142.88 317.48H148.12C150.946 317.48 153.213 317.827 154.92 318.52C156.626 319.213 157.853 320.187 158.6 321.44C159.373 322.667 159.76 324.107 159.76 325.76C159.76 327.333 159.386 328.773 158.64 330.08C157.893 331.36 156.773 332.373 155.28 333.12C153.786 333.867 151.893 334.24 149.6 334.24ZM174.896 334.24C172.416 334.24 170.323 333.693 168.616 332.6C166.909 331.48 165.616 329.88 164.736 327.8C163.856 325.693 163.416 323.173 163.416 320.24C163.416 317.067 163.949 314.413 165.016 312.28C166.109 310.12 167.616 308.493 169.536 307.4C171.456 306.307 173.683 305.76 176.216 305.76C177.469 305.76 178.669 305.88 179.816 306.12C180.963 306.36 181.976 306.747 182.856 307.28L181.696 309.6C180.976 309.12 180.149 308.787 179.216 308.6C178.283 308.387 177.296 308.28 176.256 308.28C173.243 308.28 170.829 309.24 169.016 311.16C167.229 313.08 166.336 315.947 166.336 319.76C166.336 320.347 166.363 321.08 166.416 321.96C166.496 322.813 166.656 323.667 166.896 324.52L165.896 323.76C166.189 322.373 166.763 321.2 167.616 320.24C168.469 319.253 169.536 318.507 170.816 318C172.096 317.493 173.496 317.24 175.016 317.24C176.883 317.24 178.523 317.587 179.936 318.28C181.349 318.973 182.456 319.947 183.256 321.2C184.056 322.453 184.456 323.933 184.456 325.64C184.456 327.373 184.043 328.893 183.216 330.2C182.389 331.48 181.243 332.48 179.776 333.2C178.336 333.893 176.709 334.24 174.896 334.24ZM174.776 331.8C176.109 331.8 177.283 331.56 178.296 331.08C179.336 330.573 180.149 329.867 180.736 328.96C181.323 328.027 181.616 326.947 181.616 325.72C181.616 323.88 180.976 322.413 179.696 321.32C178.443 320.227 176.736 319.68 174.576 319.68C173.136 319.68 171.883 319.947 170.816 320.48C169.749 321.013 168.909 321.747 168.296 322.68C167.683 323.587 167.376 324.627 167.376 325.8C167.376 326.813 167.656 327.787 168.216 328.72C168.776 329.627 169.603 330.373 170.696 330.96C171.816 331.52 173.176 331.8 174.776 331.8ZM192.398 334L204.478 307.28L205.358 308.56H188.038L189.518 307.16V313.8H186.678V306H207.238V308.04L195.518 334H192.398ZM220.931 334.24C218.691 334.24 216.758 333.92 215.131 333.28C213.531 332.64 212.291 331.72 211.411 330.52C210.558 329.293 210.131 327.853 210.131 326.2C210.131 324.6 210.544 323.24 211.371 322.12C212.224 320.973 213.451 320.093 215.051 319.48C216.678 318.867 218.638 318.56 220.931 318.56C223.198 318.56 225.144 318.867 226.771 319.48C228.398 320.093 229.638 320.973 230.491 322.12C231.371 323.24 231.811 324.6 231.811 326.2C231.811 327.853 231.371 329.293 230.491 330.52C229.611 331.72 228.358 332.64 226.731 333.28C225.104 333.92 223.171 334.24 220.931 334.24ZM220.931 331.8C223.411 331.8 225.344 331.293 226.731 330.28C228.144 329.267 228.851 327.893 228.851 326.16C228.851 324.427 228.144 323.067 226.731 322.08C225.344 321.067 223.411 320.56 220.931 320.56C218.451 320.56 216.518 321.067 215.131 322.08C213.744 323.067 213.051 324.427 213.051 326.16C213.051 327.893 213.744 329.267 215.131 330.28C216.518 331.293 218.451 331.8 220.931 331.8ZM220.931 320.2C218.851 320.2 217.078 319.92 215.611 319.36C214.171 318.8 213.064 318 212.291 316.96C211.518 315.893 211.131 314.627 211.131 313.16C211.131 311.613 211.531 310.293 212.331 309.2C213.158 308.08 214.304 307.227 215.771 306.64C217.238 306.053 218.958 305.76 220.931 305.76C222.904 305.76 224.624 306.053 226.091 306.64C227.584 307.227 228.744 308.08 229.571 309.2C230.398 310.293 230.811 311.613 230.811 313.16C230.811 314.627 230.424 315.893 229.651 316.96C228.878 318 227.744 318.8 226.251 319.36C224.784 319.92 223.011 320.2 220.931 320.2ZM220.931 318.28C223.118 318.28 224.824 317.827 226.051 316.92C227.278 316.013 227.891 314.8 227.891 313.28C227.891 311.68 227.251 310.44 225.971 309.56C224.718 308.653 223.038 308.2 220.931 308.2C218.824 308.2 217.144 308.653 215.891 309.56C214.638 310.44 214.011 311.667 214.011 313.24C214.011 314.787 214.611 316.013 215.811 316.92C217.038 317.827 218.744 318.28 220.931 318.28ZM254.988 305.76C257.468 305.76 259.561 306.32 261.268 307.44C262.974 308.533 264.268 310.12 265.148 312.2C266.028 314.28 266.468 316.8 266.468 319.76C266.468 322.907 265.921 325.56 264.828 327.72C263.761 329.88 262.268 331.507 260.348 332.6C258.428 333.693 256.201 334.24 253.668 334.24C252.414 334.24 251.214 334.12 250.067 333.88C248.948 333.64 247.934 333.253 247.028 332.72L248.188 330.4C248.908 330.88 249.734 331.227 250.668 331.44C251.628 331.627 252.614 331.72 253.628 331.72C256.641 331.72 259.041 330.76 260.828 328.84C262.641 326.92 263.548 324.053 263.548 320.24C263.548 319.627 263.508 318.893 263.428 318.04C263.374 317.187 263.228 316.333 262.988 315.48L263.988 316.24C263.721 317.627 263.148 318.813 262.268 319.8C261.414 320.76 260.348 321.493 259.068 322C257.814 322.507 256.414 322.76 254.868 322.76C253.028 322.76 251.388 322.413 249.948 321.72C248.534 321.027 247.428 320.053 246.628 318.8C245.828 317.547 245.428 316.067 245.428 314.36C245.428 312.6 245.841 311.08 246.668 309.8C247.494 308.52 248.628 307.533 250.067 306.84C251.534 306.12 253.174 305.76 254.988 305.76ZM255.108 308.2C253.774 308.2 252.588 308.453 251.548 308.96C250.534 309.44 249.734 310.133 249.148 311.04C248.561 311.947 248.268 313.027 248.268 314.28C248.268 316.12 248.894 317.587 250.148 318.68C251.428 319.773 253.148 320.32 255.308 320.32C256.748 320.32 258.001 320.053 259.068 319.52C260.161 318.987 261.001 318.253 261.588 317.32C262.201 316.387 262.508 315.347 262.508 314.2C262.508 313.16 262.228 312.187 261.668 311.28C261.108 310.373 260.281 309.64 259.188 309.08C258.094 308.493 256.734 308.2 255.108 308.2ZM281.803 334.24C279.643 334.24 277.723 333.68 276.043 332.56C274.363 331.413 273.043 329.787 272.083 327.68C271.123 325.547 270.643 322.987 270.643 320C270.643 317.013 271.123 314.467 272.083 312.36C273.043 310.227 274.363 308.6 276.043 307.48C277.723 306.333 279.643 305.76 281.803 305.76C283.963 305.76 285.883 306.333 287.563 307.48C289.243 308.6 290.563 310.227 291.523 312.36C292.509 314.467 293.003 317.013 293.003 320C293.003 322.987 292.509 325.547 291.523 327.68C290.563 329.787 289.243 331.413 287.563 332.56C285.883 333.68 283.963 334.24 281.803 334.24ZM281.803 331.6C283.456 331.6 284.896 331.16 286.123 330.28C287.349 329.373 288.309 328.067 289.003 326.36C289.696 324.627 290.043 322.507 290.043 320C290.043 317.493 289.696 315.387 289.003 313.68C288.309 311.947 287.349 310.64 286.123 309.76C284.896 308.853 283.456 308.4 281.803 308.4C280.203 308.4 278.776 308.853 277.523 309.76C276.269 310.64 275.296 311.947 274.603 313.68C273.909 315.387 273.562 317.493 273.562 320C273.562 322.507 273.909 324.627 274.603 326.36C275.296 328.067 276.269 329.373 277.523 330.28C278.776 331.16 280.203 331.6 281.803 331.6ZM302.007 334V307.2L303.287 308.56H295.407V306H304.887V334H302.007ZM311.06 334V331.96L322.7 320.56C323.767 319.52 324.567 318.613 325.1 317.84C325.633 317.04 325.993 316.293 326.18 315.6C326.367 314.907 326.46 314.253 326.46 313.64C326.46 312.013 325.9 310.733 324.78 309.8C323.687 308.867 322.06 308.4 319.9 308.4C318.247 308.4 316.78 308.653 315.5 309.16C314.247 309.667 313.167 310.453 312.26 311.52L310.22 309.76C311.313 308.48 312.713 307.493 314.42 306.8C316.127 306.107 318.033 305.76 320.14 305.76C322.033 305.76 323.673 306.067 325.06 306.68C326.447 307.267 327.513 308.133 328.26 309.28C329.033 310.427 329.42 311.773 329.42 313.32C329.42 314.227 329.287 315.12 329.02 316C328.78 316.88 328.327 317.813 327.66 318.8C327.02 319.76 326.073 320.853 324.82 322.08L314.14 332.56L313.34 331.44H330.7V334H311.06ZM353.143 334.24C351.116 334.24 349.196 333.92 347.383 333.28C345.596 332.613 344.156 331.733 343.063 330.64L344.463 328.36C345.37 329.293 346.583 330.067 348.103 330.68C349.65 331.293 351.33 331.6 353.143 331.6C355.463 331.6 357.236 331.093 358.463 330.08C359.716 329.067 360.343 327.707 360.343 326C360.343 324.293 359.73 322.933 358.503 321.92C357.303 320.907 355.396 320.4 352.783 320.4H350.783V318.28L359.423 307.44L359.823 308.56H344.223V306H362.223V308.04L353.583 318.88L352.183 317.96H353.263C356.623 317.96 359.13 318.707 360.783 320.2C362.463 321.693 363.303 323.613 363.303 325.96C363.303 327.533 362.93 328.947 362.183 330.2C361.436 331.453 360.303 332.44 358.783 333.16C357.29 333.88 355.41 334.24 353.143 334.24ZM366.881 326.64V324.56L381.721 306H384.921L370.201 324.56L368.641 324.08H391.161V326.64H366.881ZM382.681 334V326.64L382.761 324.08V317.6H385.561V334H382.681ZM402.568 334.24C400.568 334.24 398.662 333.92 396.848 333.28C395.035 332.613 393.595 331.733 392.528 330.64L393.928 328.36C394.808 329.293 396.008 330.067 397.528 330.68C399.075 331.293 400.742 331.6 402.528 331.6C404.902 331.6 406.702 331.08 407.928 330.04C409.182 328.973 409.808 327.587 409.808 325.88C409.808 324.68 409.515 323.653 408.928 322.8C408.368 321.92 407.408 321.24 406.048 320.76C404.688 320.28 402.822 320.04 400.448 320.04H394.488L395.928 306H411.248V308.56H397.088L398.568 307.16L397.328 318.92L395.848 317.48H401.088C403.915 317.48 406.182 317.827 407.888 318.52C409.595 319.213 410.822 320.187 411.568 321.44C412.342 322.667 412.728 324.107 412.728 325.76C412.728 327.333 412.355 328.773 411.608 330.08C410.862 331.36 409.742 332.373 408.248 333.12C406.755 333.867 404.862 334.24 402.568 334.24ZM427.865 334.24C425.385 334.24 423.291 333.693 421.585 332.6C419.878 331.48 418.585 329.88 417.705 327.8C416.825 325.693 416.385 323.173 416.385 320.24C416.385 317.067 416.918 314.413 417.985 312.28C419.078 310.12 420.585 308.493 422.505 307.4C424.425 306.307 426.651 305.76 429.185 305.76C430.438 305.76 431.638 305.88 432.785 306.12C433.931 306.36 434.945 306.747 435.825 307.28L434.665 309.6C433.945 309.12 433.118 308.787 432.185 308.6C431.251 308.387 430.265 308.28 429.225 308.28C426.211 308.28 423.798 309.24 421.985 311.16C420.198 313.08 419.305 315.947 419.305 319.76C419.305 320.347 419.331 321.08 419.385 321.96C419.465 322.813 419.625 323.667 419.865 324.52L418.865 323.76C419.158 322.373 419.731 321.2 420.585 320.24C421.438 319.253 422.505 318.507 423.785 318C425.065 317.493 426.465 317.24 427.985 317.24C429.851 317.24 431.491 317.587 432.905 318.28C434.318 318.973 435.425 319.947 436.225 321.2C437.025 322.453 437.425 323.933 437.425 325.64C437.425 327.373 437.011 328.893 436.185 330.2C435.358 331.48 434.211 332.48 432.745 333.2C431.305 333.893 429.678 334.24 427.865 334.24ZM427.745 331.8C429.078 331.8 430.251 331.56 431.265 331.08C432.305 330.573 433.118 329.867 433.705 328.96C434.291 328.027 434.585 326.947 434.585 325.72C434.585 323.88 433.945 322.413 432.665 321.32C431.411 320.227 429.705 319.68 427.545 319.68C426.105 319.68 424.851 319.947 423.785 320.48C422.718 321.013 421.878 321.747 421.265 322.68C420.651 323.587 420.345 324.627 420.345 325.8C420.345 326.813 420.625 327.787 421.185 328.72C421.745 329.627 422.571 330.373 423.665 330.96C424.785 331.52 426.145 331.8 427.745 331.8Z" fill="white"/>
<path d="M62.032 360.6H64.368V383H62.032V360.6ZM48.016 383H45.648V360.6H48.016V383ZM62.256 372.664H47.76V370.584H62.256V372.664ZM73.7913 370.616H85.6313V372.632H73.7913V370.616ZM74.0473 380.952H87.5193V383H71.6793V360.6H87.0393V362.648H74.0473V380.952ZM93.0855 383V360.6H101.47C103.368 360.6 105 360.909 106.366 361.528C107.731 362.125 108.776 363 109.502 364.152C110.248 365.283 110.622 366.659 110.622 368.28C110.622 369.859 110.248 371.224 109.502 372.376C108.776 373.507 107.731 374.381 106.366 375C105 375.597 103.368 375.896 101.47 375.896H94.3975L95.4535 374.808V383H93.0855ZM108.382 383L102.622 374.872H105.182L110.974 383H108.382ZM95.4535 375L94.3975 373.88H101.406C103.646 373.88 105.342 373.389 106.494 372.408C107.667 371.427 108.253 370.051 108.253 368.28C108.253 366.488 107.667 365.101 106.494 364.12C105.342 363.139 103.646 362.648 101.406 362.648H94.3975L95.4535 361.528V375ZM116.211 383V360.6H118.163L133.619 380.056H132.595V360.6H134.931V383H132.979L117.555 363.544H118.579V383H116.211ZM138.658 383L148.898 360.6H151.234L161.474 383H158.978L149.57 361.976H150.53L141.122 383H138.658ZM142.69 377.016L143.394 375.096H156.418L157.122 377.016H142.69ZM165.179 383V360.6H167.131L182.587 380.056H181.563V360.6H183.899V383H181.947L166.523 363.544H167.547V383H165.179ZM201.698 371.448H213.538V373.496H201.698V371.448ZM201.954 383H199.586V360.6H214.946V362.648H201.954V383ZM215.189 383L225.429 360.6H227.765L238.005 383H235.509L226.101 361.976H227.061L217.653 383H215.189ZM219.221 377.016L219.925 375.096H232.949L233.653 377.016H219.221ZM241.711 383V360.6H244.079V380.952H256.623V383H241.711ZM269.845 383.192C268.159 383.192 266.602 382.915 265.173 382.36C263.743 381.784 262.506 380.984 261.461 379.96C260.415 378.936 259.594 377.731 258.997 376.344C258.421 374.957 258.133 373.443 258.133 371.8C258.133 370.157 258.421 368.643 258.997 367.256C259.594 365.869 260.415 364.664 261.461 363.64C262.527 362.616 263.775 361.827 265.205 361.272C266.634 360.696 268.191 360.408 269.877 360.408C271.498 360.408 273.023 360.685 274.453 361.24C275.882 361.773 277.087 362.584 278.069 363.672L276.565 365.176C275.647 364.237 274.634 363.565 273.525 363.16C272.415 362.733 271.221 362.52 269.941 362.52C268.597 362.52 267.349 362.755 266.197 363.224C265.045 363.672 264.042 364.323 263.189 365.176C262.335 366.008 261.663 366.989 261.173 368.12C260.703 369.229 260.469 370.456 260.469 371.8C260.469 373.144 260.703 374.381 261.173 375.512C261.663 376.621 262.335 377.603 263.189 378.456C264.042 379.288 265.045 379.939 266.197 380.408C267.349 380.856 268.597 381.08 269.941 381.08C271.221 381.08 272.415 380.867 273.525 380.44C274.634 380.013 275.647 379.331 276.565 378.392L278.069 379.896C277.087 380.984 275.882 381.805 274.453 382.36C273.023 382.915 271.487 383.192 269.845 383.192ZM292.44 383.192C290.755 383.192 289.187 382.915 287.736 382.36C286.307 381.784 285.059 380.984 283.992 379.96C282.947 378.915 282.125 377.709 281.528 376.344C280.952 374.957 280.664 373.443 280.664 371.8C280.664 370.157 280.952 368.653 281.528 367.288C282.125 365.901 282.947 364.696 283.992 363.672C285.059 362.627 286.307 361.827 287.736 361.272C289.165 360.696 290.733 360.408 292.44 360.408C294.125 360.408 295.683 360.696 297.112 361.272C298.541 361.827 299.779 362.616 300.824 363.64C301.891 364.664 302.712 365.869 303.288 367.256C303.885 368.643 304.184 370.157 304.184 371.8C304.184 373.443 303.885 374.957 303.288 376.344C302.712 377.731 301.891 378.936 300.824 379.96C299.779 380.984 298.541 381.784 297.112 382.36C295.683 382.915 294.125 383.192 292.44 383.192ZM292.44 381.08C293.784 381.08 295.021 380.856 296.152 380.408C297.304 379.939 298.296 379.288 299.128 378.456C299.981 377.603 300.643 376.621 301.112 375.512C301.581 374.381 301.816 373.144 301.816 371.8C301.816 370.456 301.581 369.229 301.112 368.12C300.643 366.989 299.981 366.008 299.128 365.176C298.296 364.323 297.304 363.672 296.152 363.224C295.021 362.755 293.784 362.52 292.44 362.52C291.096 362.52 289.848 362.755 288.696 363.224C287.544 363.672 286.541 364.323 285.688 365.176C284.856 366.008 284.195 366.989 283.704 368.12C283.235 369.229 283 370.456 283 371.8C283 373.123 283.235 374.349 283.704 375.48C284.195 376.611 284.856 377.603 285.688 378.456C286.541 379.288 287.544 379.939 288.696 380.408C289.848 380.856 291.096 381.08 292.44 381.08ZM309.492 383V360.6H311.444L326.9 380.056H325.876V360.6H328.212V383H326.26L310.836 363.544H311.86V383H309.492ZM343.898 383V360.6H345.85L356.09 378.072H355.066L365.21 360.6H367.162V383H364.89V364.152H365.434L356.09 380.152H354.97L345.562 364.152H346.17V383H343.898Z" fill="white"/>
</g>
<defs>
<linearGradient id="paint0_linear_1_132" x1="-0.629943" y1="204.268" x2="692.367" y2="233.741" gradientUnits="userSpaceOnUse">
<stop offset="0.01" stop-color="white" stop-opacity="0.32"/>
<stop offset="1" stop-color="#FBFBFB" stop-opacity="0.37"/>
</linearGradient>
<linearGradient id="paint1_linear_1_132" x1="229.629" y1="94.3735" x2="649.641" y2="94.3735" gradientUnits="userSpaceOnUse">
<stop stop-color="#351B5A"/>
<stop offset="1" stop-color="#3A7D6E"/>
</linearGradient>
<linearGradient id="paint2_linear_1_132" x1="354.925" y1="132.51" x2="690.962" y2="132.51" gradientUnits="userSpaceOnUse">
<stop stop-color="#351B5A"/>
<stop offset="1" stop-color="#3A7D6E"/>
</linearGradient>
<clipPath id="clip0_1_132">
<rect width="693" height="438" fill="white"/>
</clipPath>
</defs>
</svg>
